<?xml version="1.0" encoding="iso-8859-1"?>
<!-- Generator: Adobe Illustrator 19.2.0, SVG Export Plug-In . SVG Version: 6.00 Build 0)  -->
<svg version="1.1" id="Layer_1" xmlns="http://www.w3.org/2000/svg" xmlns:xlink="http://www.w3.org/1999/xlink" x="0px" y="0px"
	 viewBox="0 0 310.779 150" style="enable-background:new 0 0 310.779 150;" xml:space="preserve">
<path style="fill:#FFFFFF;" d="M49.816,50.887V21.902h-18.5L0,123.259h29.358l3.076-12.023h30.617l3.214,12.023h4.176V50.887H49.816
	z M41.94,82.856l5.872-23.348l5.732,23.348H41.94z"/>
<path style="fill:#FFFFFF;" d="M163.784,20.849l-18.593,24.605l-18.314-24.605h-5.486v29h-20v73h26V70.832l18.86,24.746
	l19.14-24.746v52.016h29v-102H163.784z M189.39,113.522c0,3.248-0.823,5.633-2.666,7.156c-1.843,1.522-4.37,2.284-7.68,2.284
	c-2.936,0-5.187-0.839-7.029-2.518c-1.843-1.679-2.625-4.064-2.625-7.156v-17.31c0-3.701,0.701-6.469,2.334-8.304
	c1.632-1.835,4.132-2.752,7.614-2.752c1.421,0,2.704,0.176,3.906,0.527c1.202,0.351,2.254,0.871,3.183,1.558
	c0.929,0.687,1.648,1.589,2.178,2.705c0.531,1.117,0.785,2.401,0.785,3.853v6.283h-8v-4.035c0-2.233-0.727-3.35-2.038-3.35
	c-0.781,0-0.817,0.246-1.066,0.738c-0.25,0.492,0.105,1.175,0.105,2.049v17.638c0,0.765-0.339,1.429,0.012,1.991
	c0.351,0.562,0.559,0.843,1.136,0.843c0.531,0,0.934-0.207,1.324-0.621c0.39-0.414,0.528-1.151,0.528-2.213v-7.041h8V113.522z"/>
<path style="fill:#FFFFFF;" d="M212.774,85.227l4.123,37.314h-7.964l-0.585-5.622h-4.17l-0.515,5.622h-8.01l4.216-37.314H212.774z
	 M206.614,92.23h-0.75l-1.101,17.896h2.952L206.614,92.23z"/>
<path style="fill:#FFFFFF;" d="M219.426,122.54V85.227h10.892c1.437,0,2.694,0.188,3.771,0.562c1.078,0.375,2.03,0.984,2.858,1.827
	c0.827,0.843,1.456,2.011,1.885,3.502c0.429,1.492,0.644,3.299,0.644,5.423c0,1.827-0.129,3.393-0.387,4.697
	c-0.257,1.304-0.699,2.463-1.323,3.478c-0.625,1.015-1.511,1.777-2.659,2.284c-1.148,0.508-2.557,0.761-4.228,0.761h-3.349v14.78
	H219.426z M227.531,92.02v9.018H228c0.437,0,0.769-0.012,0.996-0.035c0.226-0.023,0.491-0.078,0.796-0.164
	c0.304-0.086,0.53-0.226,0.679-0.422c0.149-0.195,0.301-0.46,0.457-0.796c0.156-0.336,0.262-0.769,0.316-1.3
	c0.055-0.531,0.082-1.171,0.082-1.921c0-1.64-0.215-2.779-0.644-3.42c-0.43-0.64-1.175-0.96-2.237-0.96H227.531z"/>
<path style="fill:#FFFFFF;" d="M241.913,122.54V85.227h7.964v37.314H241.913z"/>
<path style="fill:#FFFFFF;" d="M252.384,85.227h18.036v7.191h-4.895v30.123h-8.245V92.418h-4.895V85.227z"/>
<path style="fill:#FFFFFF;" d="M287.402,85.227l4.123,37.314h-7.964l-0.585-5.622h-4.17l-0.515,5.622h-8.01l4.216-37.314H287.402z
	 M281.242,92.23h-0.75l-1.102,17.896h2.952L281.242,92.23z"/>
<path style="fill:#FFFFFF;" d="M294.054,122.54V85.227h8.245v30.029h8.48v7.285H294.054z"/>
<path style="fill:#FFFFFF;" d="M49.816,51.107c0,0,0.669-0.964,1.923-2.77c1.336-1.746,3.262-4.353,6.099-7.338
	c2.813-3.002,6.458-6.447,10.983-9.985c4.532-3.525,9.951-7.117,16.148-10.534c6.22-3.366,13.201-6.604,20.844-9.341
	c7.626-2.786,15.89-5.11,24.565-6.938c8.683-1.788,17.78-3.066,27.081-3.698c9.292-0.662,18.789-0.669,28.262-0.026
	c18.928,1.274,37.746,5.228,54.459,11.748c8.354,3.251,16.181,7.121,23.207,11.515c7.039,4.37,13.25,9.3,18.45,14.462
	c5.19,5.177,9.324,10.623,12.345,15.877c3.028,5.254,4.953,10.281,6.088,14.541c1.153,4.263,1.549,7.745,1.742,10.107
	c0.1,1.184,0.129,2.094,0.143,2.708c0.019,0.614,0.029,0.93,0.029,0.93h-8.201c0,0-0.002-0.27-0.006-0.792
	c0.001-0.523-0.003-1.298-0.065-2.308c-0.116-2.017-0.376-4.99-1.278-8.683c-0.886-3.69-2.442-8.098-5.011-12.825
	c-2.563-4.724-6.162-9.741-10.821-14.624c-4.671-4.869-10.355-9.631-16.917-13.931c-6.546-4.322-13.935-8.212-21.898-11.538
	c-15.93-6.673-34.147-10.993-52.626-12.692c-9.235-0.852-18.547-1.069-27.7-0.723c-9.15,0.34-18.131,1.321-26.732,2.818
	c-8.593,1.537-16.81,3.576-24.417,6.094c-7.625,2.469-14.615,5.454-20.87,8.594c-6.231,3.19-11.707,6.581-16.308,9.938
	c-4.594,3.369-8.32,6.68-11.21,9.581c-2.915,2.884-4.913,5.421-6.3,7.123C50.514,50.165,49.816,51.107,49.816,51.107z"/>
<g>
	<path style="fill:#FFFFFF;" d="M0,149.717v-17.915c0.688-0.151,1.742-0.29,3.16-0.417c1.418-0.128,2.769-0.191,4.051-0.191
		c2.62,0,4.503,0.424,5.649,1.273c1.145,0.848,1.718,2.211,1.718,4.086v13.164H0z M10.251,146.423v-9.869
		c0-0.858-0.335-1.418-1.004-1.683c-0.585-0.236-1.447-0.353-2.587-0.353c-0.651,0-1.428,0.033-2.333,0.099v11.806H10.251z"/>
	<path style="fill:#FFFFFF;" d="M25.494,143.552v-12.075h4.312v8.427l-2.871,3.648H25.494z"/>
	<path style="fill:#FFFFFF;" d="M47.41,131.195c2.422,0,4.305,0.825,5.649,2.474c1.343,1.65,2.015,3.955,2.015,6.914
		c0,2.96-0.681,5.27-2.043,6.928C51.669,149.171,49.8,150,47.425,150c-2.375,0-4.249-0.827-5.621-2.482
		c-1.372-1.654-2.057-3.961-2.057-6.921c0-1.14,0.221-2.257,0.665-3.351c0.443-1.093,0.937-1.895,1.484-2.404v-0.113l-1.866,0.127
		v-3.266C42.216,131.327,44.676,131.195,47.41,131.195z M44.13,140.597c0,3.978,1.093,5.967,3.28,5.967
		c2.186,0,3.28-2.008,3.28-6.023s-1.094-6.023-3.28-6.023l-1.598,0.028C44.691,136.101,44.13,138.118,44.13,140.597z"/>
	<path style="fill:#FFFFFF;" d="M65.17,131.449c0.801-0.17,1.659-0.255,2.573-0.255c0.915,0,1.695,0.097,2.34,0.29
		c0.646,0.193,1.171,0.455,1.577,0.785c0.405,0.33,0.73,0.745,0.976,1.244c0.433,0.867,0.65,1.989,0.65,3.365v7.423
		c0,0.886-0.059,1.779-0.177,2.679c-0.118,0.9-0.233,1.582-0.346,2.043l-0.183,0.693h-8.244v-3.294h4.383
		c0.17-0.726,0.255-1.81,0.255-3.252v-6.292c0-1.084-0.264-1.777-0.792-2.078c-0.236-0.132-0.528-0.198-0.877-0.198
		c-0.717,0-1.428,0.08-2.135,0.24V131.449z"/>
	<path style="fill:#FFFFFF;" d="M84.259,131.449c0.801-0.17,1.659-0.255,2.573-0.255c0.915,0,1.695,0.097,2.34,0.29
		c0.646,0.193,1.171,0.455,1.577,0.785c0.405,0.33,0.73,0.745,0.976,1.244c0.433,0.867,0.65,1.989,0.65,3.365v7.423
		c0,0.886-0.059,1.779-0.177,2.679c-0.118,0.9-0.233,1.582-0.346,2.043l-0.183,0.693h-8.244v-3.294h4.383
		c0.17-0.726,0.255-1.81,0.255-3.252v-6.292c0-1.084-0.264-1.777-0.792-2.078c-0.236-0.132-0.528-0.198-0.877-0.198
		c-0.717,0-1.428,0.08-2.135,0.24V131.449z"/>
	<path style="fill:#FFFFFF;" d="M103.291,143.552v-12.075h4.312v8.427l-2.871,3.648H103.291z"/>
	<path style="fill:#FFFFFF;" d="M117.544,137.656c0-0.971,0.158-1.838,0.474-2.602c0.315-0.764,0.726-1.381,1.23-1.852
		c0.504-0.471,1.096-0.863,1.775-1.174c1.225-0.556,2.625-0.834,4.2-0.834c0.763,0,1.477,0.071,2.142,0.212
		c0.665,0.141,1.346,0.422,2.044,0.841c0.697,0.42,1.293,0.964,1.788,1.633c0.495,0.669,0.9,1.577,1.216,2.722
		c0.315,1.146,0.473,2.369,0.473,3.669s-0.07,2.402-0.212,3.302c-0.141,0.9-0.337,1.671-0.587,2.312
		c-0.25,0.641-0.564,1.207-0.94,1.697c-0.377,0.49-0.777,0.886-1.202,1.188c-0.423,0.302-0.9,0.547-1.428,0.735
		c-0.933,0.33-2.02,0.495-3.259,0.495c-1.24,0-2.409-0.033-3.507-0.099c-1.099-0.066-1.897-0.132-2.397-0.198l-0.735-0.099v-3.167
		c2.168,0.17,4.369,0.255,6.603,0.255c0.819,0,1.493-0.236,2.022-0.707c0.396-0.358,0.712-0.966,0.947-1.824
		c0.161-0.584,0.25-1.206,0.269-1.866c0.019-0.66,0.028-1.23,0.028-1.711c0-0.481-0.005-0.884-0.014-1.209
		c-0.009-0.325-0.037-0.716-0.084-1.173c-0.048-0.457-0.113-0.837-0.199-1.138c-0.084-0.301-0.207-0.62-0.367-0.954
		c-0.161-0.335-0.354-0.596-0.58-0.785c-0.537-0.462-1.211-0.693-2.022-0.693c-0.595,0-1.11,0.087-1.548,0.262
		c-0.439,0.174-0.764,0.375-0.976,0.601c-0.212,0.226-0.384,0.49-0.516,0.792c-0.17,0.424-0.255,0.851-0.255,1.279
		c0,0.429,0.092,0.832,0.276,1.209c0.183,0.377,0.412,0.669,0.686,0.877c0.518,0.396,0.995,0.636,1.428,0.721l0.537,0.099
		l-0.721,3.224l-0.75-0.099c-1.31-0.17-2.3-0.41-2.969-0.721C118.501,141.997,117.544,140.258,117.544,137.656z"/>
	<path style="fill:#FFFFFF;" d="M171.474,149.717v-17.915c0.688-0.151,1.742-0.29,3.16-0.417c1.418-0.128,2.769-0.191,4.051-0.191
		c2.62,0,4.503,0.424,5.649,1.273c1.145,0.848,1.718,2.211,1.718,4.086v13.164H171.474z M181.724,146.423v-9.869
		c0-0.858-0.335-1.418-1.004-1.683c-0.585-0.236-1.447-0.353-2.587-0.353c-0.651,0-1.428,0.033-2.333,0.099v11.806H181.724z"/>
	<path style="fill:#FFFFFF;" d="M196.968,143.552v-12.075h4.312v8.427l-2.871,3.648H196.968z"/>
	<path style="fill:#FFFFFF;" d="M215.187,149.71c-0.646,0.193-1.364,0.29-2.156,0.29s-1.499-0.127-2.121-0.382v-3.28
		c0.631,0.17,1.126,0.255,1.485,0.255c0.358,0,0.652-0.066,0.884-0.198c0.23-0.132,0.403-0.316,0.516-0.551
		c0.188-0.424,0.283-0.933,0.283-1.527v-9.445l-2.051,0.198v-3.266c2.894-0.405,5.774-0.608,8.64-0.608
		c2.121,0,3.709,0.269,4.765,0.806c0.538,0.273,0.978,0.587,1.322,0.94c0.344,0.353,0.61,0.794,0.799,1.322
		c0.188,0.528,0.315,1.063,0.381,1.605c0.066,0.542,0.099,1.186,0.099,1.93v11.92h-4.34v-11.934c0-2.177-1.193-3.266-3.578-3.266
		c-0.528,0-1.102,0.014-1.724,0.042v9.756c0,2.187-0.543,3.723-1.626,4.609C216.358,149.255,215.832,149.517,215.187,149.71z"/>
	<path style="fill:#FFFFFF;" d="M243.445,149.717h-4.312v-18.24h4.312V149.717z"/>
	<path style="fill:#FFFFFF;" d="M252.976,131.492c1.762-0.198,3.324-0.297,4.687-0.297s2.44,0.066,3.231,0.198
		c0.792,0.132,1.456,0.335,1.993,0.608c0.537,0.273,0.978,0.587,1.322,0.94c0.343,0.353,0.61,0.794,0.799,1.322
		c0.188,0.528,0.316,1.063,0.381,1.605c0.066,0.542,0.099,1.186,0.099,1.93v11.92h-4.327v-11.934c0-2.177-1.197-3.266-3.591-3.266
		c-1.207,0-2.738,0.099-4.595,0.297V131.492z"/>
	<path style="fill:#FFFFFF;" d="M276.405,143.552v-12.075h4.312v8.427l-2.871,3.648H276.405z"/>
	<path style="fill:#FFFFFF;" d="M300.598,149.717h-8.257l-1.542-18.24h4.129l0.764,9.134c0.113,0.01,0.254,0.014,0.424,0.014
		c0.744,0,1.298-0.198,1.662-0.594c0.363-0.396,0.581-1.056,0.657-1.98l0.537-6.575h4.1l-0.523,6.532
		c-0.292,3.705-2.224,5.557-5.796,5.557c-0.199,0-0.467-0.009-0.806-0.028l0.241,2.884h4.609c1.575,0,2.786-0.612,3.634-1.838
		c0.848-1.225,1.362-2.913,1.542-5.062l0.679-8.045h4.129l-0.679,7.932c-0.151,1.716-0.392,3.092-0.721,4.129
		C308.087,147.658,305.16,149.717,300.598,149.717z"/>
</g>
</svg>
