<svg style="position: absolute; width: 0; height: 0;" width="0" height="0" version="1.1" xmlns="http://www.w3.org/2000/svg" xmlns:xlink="http://www.w3.org/1999/xlink">
<defs>
<symbol id="icon-secure" viewBox="0 0 1024 1024">
<title>secure</title>
<path class="path1" d="M786.458 359.578h-15.872c3.379-27.238 5.171-58.701 5.171-95.258 0-145.946-118.374-264.32-264.346-264.32s-264.346 118.374-264.346 264.32c0 36.403 1.434 67.763 3.994 95.258h-14.72c-31.565 0-57.139 25.6-57.139 57.165v550.118c0 31.565 25.6 57.165 57.139 57.165h550.118c31.565 0 57.165-25.574 57.165-57.165v-550.118c0-31.565-25.6-57.165-57.165-57.165zM543.565 711.066v165.325h-64.307v-165.325c-39.373-13.44-67.866-50.33-67.866-94.285 0-55.245 44.774-100.019 100.019-100.019s100.019 44.774 100.019 100.019c0 43.93-28.493 80.819-67.866 94.285zM669.389 359.578h-318.592c-2.202-25.446-3.354-56.832-3.354-95.258 0-90.547 73.395-163.968 163.968-163.968s163.994 73.421 163.994 163.968c0 40.013-2.125 71.040-6.016 95.258z"></path>
</symbol>
<symbol id="icon-credit" viewBox="0 0 1024 1024">
<title>credit</title>
<path class="path1" d="M930.922 158.897h-834.613c-52.966 0-96.309 43.343-96.309 96.291v513.607c0 52.966 43.343 96.309 96.309 96.309h834.613c52.966 0 96.291-43.343 96.291-96.309v-513.607c0.018-52.948-43.326-96.291-96.291-96.291zM979.085 768.794c0 26.553-21.592 48.146-48.146 48.146h-834.613c-26.553 0-48.146-21.592-48.146-48.146v-278.21h930.904v278.21zM979.085 330.081h-930.904v-74.893c0-26.553 21.592-48.146 48.146-48.146h834.613c26.553 0 48.146 21.592 48.146 48.146v74.893z"></path>
<path class="path2" d="M741.747 719.095h109.268c13.718 0 24.858-8.422 24.858-18.803v-82.644c0-10.381-11.123-18.803-24.858-18.803h-109.268c-13.736 0-24.858 8.422-24.858 18.803v82.644c0 10.381 11.123 18.803 24.858 18.803z"></path>
</symbol>
<symbol id="icon-id" viewBox="0 0 1024 1024">
<title>id</title>
<path class="path1" d="M403.84 603.246c-0.165-20.224-13.861-37.669-33.518-42.441l-68.078-8.247-0.896-6.199c24.43-19.493 36.773-47.909 36.773-84.462 0-57.051-33.243-96.914-80.896-96.914s-80.896 39.863-80.896 96.914c0 36.553 12.398 64.987 36.827 84.462l-0.951 6.199-67.346 8.082-0.731 0.165c-19.639 4.773-33.353 22.217-33.463 42.441l-4.261 100.352v0.53c0 33.993 82.907 46.007 150.839 46.007s150.839-12.032 150.839-46.007l-4.242-100.882z"></path>
<path class="path2" d="M490.734 530.048h432.786v55.003h-432.786v-55.003z"></path>
<path class="path3" d="M490.734 405.522h432.786v55.003h-432.786v-55.003z"></path>
<path class="path4" d="M490.734 654.574h432.786v55.003h-432.786v-55.003z"></path>
<path class="path5" d="M0 182.857v666.277h1029.943v-666.277h-1029.943zM1003.959 823.168h-977.993v-540.032h977.993v540.032z"></path>
</symbol>
<symbol id="icon-banks" viewBox="0 0 1024 1024">
<title>banks</title>
<path class="path1" d="M417.28 297.651c-0.128 1.51-0.205 3.072-0.205 4.582 0 22.605 14.054 41.907 34.074 49.638v415.334c-19.942 7.706-34.074 27.11-34.074 49.69 0 0.742 0.077 1.51 0.077 2.253h-116.045c0.077-0.742 0.128-1.51 0.128-2.253 0-22.605-14.131-41.907-34.074-49.638v-415.334c19.942-7.706 34.074-27.034 34.074-49.69 0-1.51-0.077-3.072-0.205-4.582h116.25zM757.581 351.846v415.334c-19.942 7.706-34.048 27.11-34.048 49.69 0 0.742 0.051 1.51 0.128 2.253h-116.045c0-0.742 0.128-1.51 0.128-2.253 0-22.605-14.131-41.907-34.125-49.638v-415.309c19.942-7.706 34.125-27.034 34.125-49.69 0-1.51-0.128-3.072-0.256-4.582h116.25c-0.128 1.51-0.205 3.072-0.205 4.582 0 22.579 14.131 41.907 34.048 49.613zM980.403 876.621h-26.624v-25.882c0-17.485-14.131-31.616-31.539-31.616h-8.192c0.077-0.742 0.128-1.51 0.128-2.253 0-22.605-14.131-41.907-34.074-49.638v-415.309c19.866-7.706 34.074-27.034 34.074-49.69 0-1.51-0.128-3.072-0.282-4.582h35.84c18.714 0 33.869-15.155 33.869-33.92v-92.646c0-14.746-9.626-27.853-23.757-32.282l-437.299-137.216c-6.63-2.125-13.722-2.125-20.275 0l-437.376 137.216c-14.131 4.429-23.757 17.536-23.757 32.282v92.646c0 18.714 15.155 33.92 33.869 33.92h35.84c-0.128 1.51-0.282 3.072-0.282 4.582 0 22.605 14.131 41.907 34.074 49.638v415.334c-19.866 7.706-34.074 27.11-34.074 49.69 0 0.742 0.077 1.51 0.128 2.253h-8.192c-17.408 0-31.539 14.131-31.539 31.616v25.882h-26.624c-17.408 0-31.539 14.131-31.539 31.539v84.301c0 17.408 14.131 31.539 31.539 31.539h936.064c17.408 0 31.539-14.131 31.539-31.539v-84.301c0-17.434-14.131-31.565-31.539-31.565z"></path>
</symbol>
<symbol id="icon-time" viewBox="0 0 1024 1024">
<title>time</title>
<path class="path1" d="M786.432 179.712v-87.45h77.517v-92.262h-710.349v92.262h77.517v87.45c0 160.256 88.653 254.106 148.378 299.136 10.394 7.834 16.512 20.122 16.512 33.152s-6.118 25.318-16.538 33.152c-59.699 45.030-148.352 138.88-148.352 299.136v87.45h-77.517v92.262h710.349v-92.262h-77.517v-87.45c0-160.256-88.653-254.080-148.352-299.136-10.394-7.834-16.512-20.122-16.512-33.152s6.118-25.318 16.512-33.178c59.699-45.005 148.352-138.854 148.352-299.11zM682.982 760.653c-123.11-128.435-225.050-128-348.16 0.026 22.374-76.877 78.413-158.95 175.258-199.603 95.027 42.726 150.758 122.573 172.902 199.578zM508.774 462.643c-127.258-54.349-185.421-167.066-185.421-282.931v-87.45h370.816v87.45c0.026 115.021-57.344 228.275-185.395 282.931z"></path>
</symbol>
<symbol id="icon-israel" viewBox="0 0 1024 1024">
<title>israel</title>
<path class="path1" d="M637.201 1019.273c38.571-5.222 56.064-7.731 58.829-8.482 2.748-0.734 6.963-4.847 15.36-14.985 7.919-9.54 8.533-10.462 9.079-13.363 0.341-1.86 1.57-19.849 3.465-50.978 0.239-3.84 0.222-7.305-0.017-7.817-0.41-0.819-1.519-0.887-12.339-0.887-6.537 0-12.151 0.171-12.476 0.393-0.666 0.427-8.892 27.87-8.892 29.645 0 0.973 0.427 1.212 2.935 1.724 1.621 0.324 3.635 0.768 4.489 0.973l1.536 0.375-0.017 7.646c-0.017 7.612-0.034 7.663-1.741 11.196-0.956 1.946-2.697 4.523-3.874 5.7-1.963 1.963-2.628 2.253-7.731 3.465-6.588 1.57-15.974 3.174-16.35 2.782-0.154-0.154 1.673-7.151 4.062-15.565 4.693-16.64 10.513-37.837 11.878-43.349 0.683-2.782 0.734-3.601 0.222-4.233-0.546-0.649-2.953-0.768-15.804-0.768-8.346 0-15.479 0.205-15.838 0.427-0.939 0.597-10.906 27.273-10.581 28.314 0.171 0.563 1.707 1.229 4.471 1.98 2.321 0.614 4.267 1.195 4.352 1.263 0.495 0.461-14.575 34.065-15.292 34.065-0.597 0-2.833-4.983-3.772-8.448-1.161-4.267-1.57-12.595-0.836-16.896 0.768-4.454 7.834-29.167 9.233-32.324 2.833-6.417 0.068-8.38-11.844-8.397-7.083-0.017-11.247-0.734-18.193-3.174-3.038-1.058-4.898-1.485-5.222-1.161-0.819 0.819-12.322 27.682-12.305 28.723 0.034 2.202 5.035 6.263 9.37 7.629 5.205 1.638 5.461 1.809 5.461 3.345 0 1.007-0.768 2.27-2.56 4.233-1.417 1.536-2.935 3.806-3.396 5.035-0.87 2.321-1.297 11.861-1.911 41.779-0.307 14.763-0.222 15.206 2.645 14.711 0.717-0.102 15.855-2.167 33.604-4.574zM615.185 1005.346c0.137-2.458 0.358-11.776 0.512-20.702 0.137-8.926 0.512-17.408 0.836-18.859 0.341-1.587 1.161-3.311 2.048-4.335 2.543-2.901 5.069-7.526 5.069-9.284 0-2.697-0.478-3.243-3.516-4.079-3.669-1.007-7.236-2.287-7.236-2.594 0-0.768 5.137-10.94 5.513-10.94 0.256 0 2.167 0.427 4.267 0.956 2.082 0.529 4.898 1.126 6.263 1.314 1.485 0.222 2.577 0.666 2.765 1.143 0.171 0.427-0.188 2.202-0.785 3.925-2.167 6.263-6.246 21.402-6.81 25.293-0.307 2.185-0.58 9.267-0.597 15.753-0.034 12.902 0.495 16.742 2.372 17.749 0.734 0.393 3.396 0.478 8.516 0.239 9.591-0.427 11.708-0.853 13.175-2.697 2.202-2.765 20.804-48.145 20.531-50.125-0.137-0.939-0.58-1.041-5.137-1.178-2.748-0.085-5.001-0.273-5.001-0.444 0-0.154 0.836-1.877 1.86-3.823l1.86-3.533h13.653l-0.7 2.185c-0.375 1.195-1.997 6.434-3.584 11.657-1.587 5.205-5.444 17.493-8.567 27.307-4.83 15.189-5.564 17.937-4.966 18.534s2.27 0.478 10.957-0.768c21.709-3.123 24.934-3.772 27.938-5.683 3.157-1.997 10.325-9.438 11.691-12.134 1.348-2.645 2.338-8.943 3.157-20.002 0.734-9.865 0.751-9.813-3.686-9.813-1.946 0-3.106-0.222-3.26-0.631-0.137-0.358 0.41-2.953 1.212-5.769l1.451-5.12 9.899-0.307-0.273 1.946c-0.154 1.075-0.853 8.858-1.57 17.306-1.229 14.507-2.031 20.292-3.209 23.347-0.512 1.331-12.783 13.261-17.084 16.623l-2.338 1.809-18.381 2.543c-24.081 3.345-56.781 7.663-58.061 7.663-0.973 0-1.024-0.273-0.785-4.471zM299.025 1020.126c20.156-7.134 25.617-9.609 35.021-15.838 8.124-5.376 11.964-9.745 14.336-16.316 0.751-2.099 0.973-5.41 1.331-21.436 0.478-21.197 1.109-31.113 2.338-36.983 0.461-2.185 0.853-4.676 0.887-5.513l0.068-1.536-70.417-0.273v-25.020c0-24.695 0.017-25.105 1.28-31.369 2.321-11.452 3.499-14.473 7.236-18.483 2.611-2.799 2.918-4.71 1.041-6.468-1.434-1.348-2.167-1.399-15.189-0.87-10.718 0.427-17.766-0.068-22.477-1.587-1.758-0.563-2.833-0.683-3.157-0.358-0.836 0.836-6.059 28.996-5.564 29.935 0.324 0.597 1.365 0.887 3.789 1.041 4.25 0.273 5.154 1.024 4.045 3.328-0.427 0.887-1.707 2.475-2.85 3.533l-2.048 1.911 0.29 3.14c0.717 7.646 0.87 24.474 0.375 40.789-0.546 17.903-1.126 25.532-2.321 30.805-0.358 1.604-0.478 3.209-0.239 3.584 0.341 0.546 7.458 0.7 37.308 0.819l36.881 0.137 0.734 1.143c0.905 1.417 2.099 15.718 1.638 19.678-0.393 3.396-1.775 6.229-3.891 8.004-2.918 2.458-19.046 6.997-24.849 6.997-1.195 0-2.441 0.307-2.748 0.683-0.666 0.785-5.666 28.45-5.308 29.406 0.393 1.143 2.389 0.683 12.459-2.884zM304.777 1007.394c0.137-0.495 0.529-1.843 0.853-3.004l0.597-2.099 11.127-4.437c11.503-4.591 12.8-5.393 14.592-8.926 2.389-4.71 3.209-14.763 2.355-28.706-0.614-10.24-1.092-12.288-3.072-13.346-0.649-0.341-12.22-0.529-33.604-0.529h-32.614l0.358-2.185c0.939-5.751 1.348-15.241 1.843-42.342l0.529-29.406 2.031-2.202c1.997-2.167 2.577-4.164 1.638-5.649-0.666-1.058-3.14-1.69-6.502-1.69h-3.243l-0.29-2.441c-0.154-1.331-0.427-4.676-0.614-7.407l-0.324-4.966 1.707 0.563c0.939 0.307 5.171 0.614 9.387 0.666 4.233 0.068 7.97 0.137 8.329 0.188 1.195 0.137 0.649 2.082-0.905 3.226-4.386 3.243-5.018 9.318-5.461 52.651-0.29 28.501-0.239 33.468 0.393 33.86 0.41 0.256 15.172 0.461 33.69 0.461 30.379 0 32.939 0.068 32.631 0.853-0.99 2.594-1.263 8.755-0.87 20.446 0.239 7.014 0.256 16.145 0.034 20.275-0.461 9.131-1.109 10.65-5.854 13.824-4.591 3.072-26.505 13.227-28.535 13.227-0.239-0.017-0.341-0.427-0.205-0.905zM563.098 1018.965c15.735-6.315 15.974-6.434 16.811-8.448 0.58-1.382 0.7-8.858 0.7-41.779 0-37.154-0.068-40.209-0.887-41.847-0.495-0.973-1.553-2.236-2.338-2.816-1.417-1.041-2.099-1.058-32.256-1.314l-30.822-0.256-3.345-1.587c-1.843-0.87-4.181-2.304-5.188-3.209-2.441-2.133-3.823-2.133-4.42 0.051-0.256 0.922-2.372 8.175-4.71 16.128-3.994 13.585-4.215 14.592-3.652 16.486 0.785 2.611 2.731 4.898 5.376 6.315 2.082 1.109 2.475 1.126 26.573 1.28l24.457 0.154v32.751c0 32.614 0 32.751 1.041 32.751 0.563 0.017 6.263-2.082 12.663-4.659zM562.176 975.087c0-25.651-0.085-28.689-0.802-28.962-0.444-0.171-10.496-0.307-22.323-0.307-23.586 0-23.893-0.034-25.668-3.038-0.478-0.819-0.87-2.202-0.87-3.089 0-1.553 0.973-6.161 1.314-6.161 0.085 0 1.263 0.683 2.628 1.519 4.727 2.918 6.434 3.089 29.884 3.089h21.316l2.219 2.355v30.020c0 33.536 0.273 31.113-3.738 32.154-1.178 0.307-2.56 0.666-3.055 0.819-0.853 0.239-0.905-1.348-0.905-28.399zM416.939 1008.93c4.574-11.486 5.461-14.097 4.932-14.729s-2.526-0.768-11.878-0.768h-11.247l0.171-9.694c0.085-5.325 0.341-9.847 0.546-10.052s4.011 2.355 8.448 5.7c28.143 21.129 55.484 41.165 57.89 42.411 2.099 1.092 4.386 1.058 5.308-0.068 1.468-1.775 13.363-26.658 13.022-27.221-0.188-0.307-1.314-1.058-2.492-1.655s-4.966-2.799-8.414-4.915c-5.649-3.447-6.281-3.977-6.281-5.291 0-2.782 0.922-3.959 5.615-7.168 2.56-1.758 5.666-4.301 6.895-5.683 3.823-4.25 3.874-4.659 3.874-26.573 0-17.732-0.068-19.354-0.887-20.070-1.963-1.69-4.557-2.065-17.545-2.458-7.185-0.222-14.387-0.683-15.991-1.041-3.157-0.683-4.489-0.256-4.489 1.485 0 0.99-4.523 14.114-7.885 22.852-1.297 3.379-2.355 6.519-2.355 6.98 0 1.434 1.314 2.031 6.758 3.072 2.901 0.563 5.751 1.109 6.349 1.229 1.502 0.307 2.27 3.26 2.253 8.755 0 4.608-0.324 6.861-0.99 6.861-0.7 0-12.663-8.073-18.21-12.288-8.209-6.246-14.251-11.162-29.423-23.945-14.302-12.049-15.753-12.954-18.91-11.844-1.229 0.427-2.133 1.451-3.738 4.233-1.161 2.014-4.335 6.878-7.031 10.803s-5.103 7.441-5.325 7.799 0.427 4.847 1.434 10.018c4.966 25.225 5.018 30.549 0.512 57.19-0.717 4.181-1.28 8.209-1.28 8.943v1.348l44.817-0.273 5.547-13.943zM383.454 1009.442c0-0.495 0.461-5.291 1.024-10.633 1.314-12.595 1.28-15.377-0.307-33.553l-1.331-15.172 2.389-3.413c1.792-2.56 2.679-3.413 3.584-3.413 0.802 0 3.055 1.673 6.741 5.001 28.416 25.6 53.931 43.162 73.182 50.364 1.536 0.58 2.782 1.212 2.782 1.434s-0.956 2.15-2.116 4.301c-1.382 2.526-2.338 3.789-2.714 3.55-1.246-0.768-39.168-26.931-56.098-38.707-9.711-6.758-18.108-12.305-18.654-12.322-0.666-0.017-1.126 0.478-1.434 1.502-0.631 2.082 0.051 42.82 0.734 43.639 0.358 0.444 3.089 0.666 9.131 0.768l8.619 0.137-4.369 7.168-10.581 0.137c-9.83 0.119-10.581 0.068-10.581-0.785zM466.756 956.962c0.461-11.315 0-11.981-8.141-11.776-2.458 0.068-4.471 0.017-4.471-0.102s0.802-2.594 1.775-5.513l1.775-5.291 7.322 0.188c4.215 0.102 7.612 0.41 8.004 0.734 0.887 0.734 0.597 21.299-0.341 23.671-0.341 0.853-1.877 2.543-3.413 3.738l-2.799 2.185 0.29-7.834zM761.498 981.129c7.407-1.98 13.807-3.789 14.217-4.011 0.563-0.324 0.768-1.655 0.853-5.495 0.154-8.124 1.417-14.319 6.656-32.7 3.106-10.923 3.43-14.080 1.69-17.169-2.014-3.584-2.953-3.823-13.21-3.294-13.312 0.666-15.65 0.529-20.89-1.348-2.475-0.887-5.188-1.638-6.042-1.69l-1.536-0.085-6.878 19.132c-5.222 14.524-6.758 19.337-6.366 19.968 1.161 1.877 3.294 2.338 11.554 2.543 7.066 0.171 8.073 0.307 8.055 1.041 0 0.461-0.683 6.366-1.519 13.107-1.092 8.926-1.365 12.442-0.956 12.937 0.307 0.375 0.631 0.666 0.717 0.666 0.102 0 6.246-1.621 13.653-3.601zM762.59 965.649c1.348-9.762 1.946-16.896 1.451-17.391-0.375-0.375-1.553-0.358-3.908 0.102-3.379 0.631-8.721 0.358-9.25-0.495-0.154-0.239 0.614-2.697 1.69-5.461l1.963-5.035 8.158 0.188c5.222 0.119 8.38 0.393 8.755 0.768 0.461 0.461 0.205 2.202-1.109 7.543-1.69 6.844-3.345 16.452-3.345 19.405 0 1.297-0.256 1.57-1.929 2.031-2.748 0.751-2.799 0.734-2.475-1.655zM234.086 960.956c0.29-0.751-10.121-37.103-10.803-37.717-0.205-0.188-3.038-1.212-6.281-2.27-20.804-6.827-35.157-16.316-40.243-26.624l-1.997-4.045 0.034-7.953c0.034-6.861 0.222-8.704 1.399-13.329 0.751-2.953 2.116-6.861 3.038-8.67l1.673-3.294 4.693-1.604c8.055-2.748 10.035-4.898 10.069-10.923 0.017-3.413-0.171-4.335-1.417-6.622-2.321-4.267-6.98-6.793-12.51-6.793-3.499 0-5.632 1.178-8.789 4.847-3.891 4.54-4.54 8.209-2.287 12.817 1.57 3.191 1.69 7.714 0.307 10.752-1.075 2.355-5.154 6.639-5.734 6.042-0.734-0.751-5.018-16.418-6.315-23.074-0.717-3.635-1.519-8.96-1.775-11.844-0.461-4.847-0.41-5.478 0.683-8.67 3.635-10.564 10.069-26.129 15.684-37.888 5.086-10.65 9.728-18.586 20.139-34.406 10.53-15.991 10.291-15.872 8.789-4.42-2.867 21.828-12.1 45.431-26.249 67.072-5.871 8.994-5.427 10.274 1.86 5.257 2.116-1.451 6.366-5.052 9.438-8.021 18.108-17.391 29.628-43.366 33.365-75.213 1.399-11.913 0.785-20.173-2.85-38.69-1.638-8.346-2.304-9.728-3.942-8.107-3.038 3.038-29.286 41.079-35.072 50.842-7.287 12.305-17.51 35.157-22.306 49.937-0.666 2.082-1.417-20.855-0.939-28.928 0.324-5.461 0.478-6.127 2.167-9.199 1.877-3.43 8.107-12.015 13.21-18.21 2.901-3.516 3.021-3.601 6.298-4.198 4.574-0.853 6.485-2.253 8.482-6.281 3.277-6.605 1.775-13.858-3.379-16.35-4.096-1.98-9.199-1.092-14.404 2.492-1.417 0.973-2.731 2.389-3.157 3.396-0.922 2.202-0.905 7.475 0.017 10.547l0.734 2.406-4.403 3.874c-2.423 2.133-4.54 3.874-4.71 3.874s-0.222-8.004-0.119-17.766l0.188-17.766 4.591-11.025c5.461-13.141 13.568-29.918 19.217-39.765 2.253-3.908 8.209-13.449 13.261-21.197 10.428-16.009 10.206-15.906 8.704-4.403-2.867 21.845-12.254 45.807-26.249 67.038-5.888 8.926-5.427 10.325 1.758 5.359 10.752-7.441 21.675-20.804 27.836-34.065 11.213-24.183 15.275-50.961 12.254-80.777-1.468-14.524-1.604-15.309-2.748-15.531-0.512-0.102-1.195 0.171-1.519 0.58s-4.267 5.308-8.738 10.889c-27.511 34.236-35.533 47.923-45.687 78.063l-3.021 8.96-0.41-6.656c-0.222-3.669-0.307-10.752-0.188-15.77 0.222-9.028 0.239-9.148 1.843-12.288 1.655-3.26 8.073-12.117 13.687-18.927 3.004-3.635 3.26-3.823 5.734-4.113 5.581-0.666 8.55-3.465 10.138-9.574 1.894-7.236-1.348-13.141-7.731-14.114-4.745-0.717-12.817 3.26-14.336 7.049-0.973 2.458-1.007 7.168-0.068 10.308l0.717 2.389-4.369 3.959c-2.389 2.185-4.506 4.028-4.71 4.096-0.341 0.119-0.256-25.788 0.119-33.929 0.137-3.14 0.666-4.779 4.284-13.312 7.646-18.074 13.943-30.942 21.009-42.906 2.987-5.035 20.343-32.034 20.992-32.631 0.529-0.495-0.358 8.994-1.434 15.36-3.294 19.439-12.493 41.574-25.634 61.747-5.171 7.936-5.257 9.643-0.307 6.554 13.585-8.482 26.419-24.269 34.014-41.847 7.066-16.333 11.947-38.571 11.93-54.357 0-8.26-4.215-33.894-5.854-35.516-0.973-0.973-1.758-0.137-11.008 11.691-18.876 24.115-26.3 35.089-33.024 48.862-4.796 9.796-9.745 21.726-13.431 32.324l-1.963 5.632-0.41-6.912c-0.222-3.806-0.307-11.008-0.171-16.009l0.239-9.079 1.86-3.379c2.116-3.857 5.666-8.789 11.998-16.708 4.181-5.239 4.506-5.513 6.707-5.82 3.106-0.444 5.615-1.519 7.27-3.106 3.823-3.652 4.983-11.639 2.355-16.128-2.475-4.233-7.68-5.649-13.107-3.584-3.703 1.417-7.253 4.045-8.073 6.007-0.922 2.202-0.905 7.475 0.017 10.547l0.734 2.406-4.403 3.874c-2.423 2.133-4.54 3.874-4.71 3.874s-0.239-6.861-0.154-15.241l0.154-15.241 3.106-9.216c4.096-12.186 7.322-20.139 12.493-30.891 4.881-10.103 7.185-14.268 15.753-28.262 8.397-13.722 7.68-13.073 7.287-6.451-1.178 19.763-9.421 43.742-21.333 62.003-4.352 6.656-4.403 6.81-3.311 7.236 0.563 0.222 2.611-0.853 6.076-3.157 7.014-4.71 17.869-15.531 22.272-22.255 9.045-13.79 14.097-29.116 15.497-47.121 0.649-8.329-0.273-50.739-1.126-52.361-0.256-0.495-0.717-0.905-1.007-0.905-0.99 0-16.265 17.050-24.883 27.785-2.662 3.311-4.915 6.025-5.001 6.025s0.034-0.87 0.273-1.929c0.939-4.147-1.792-8.397-6.963-10.837-3.174-1.485-7.066-1.28-10.769 0.614-4.147 2.099-4.574 2.85-4.574 7.97 0 2.441 0.188 5.001 0.41 5.7 0.324 1.058 0.034 1.724-1.724 3.84-1.161 1.417-2.27 2.611-2.458 2.697-0.188 0.068-0.273-5.222-0.188-11.776 0.154-11.861 0.154-11.93 2.15-20.156 4.062-16.742 10.291-33.399 17.050-45.517 2.116-3.789 19.132-31.437 19.712-32 0.529-0.529-0.444 11.503-1.399 17.033-1.297 7.543-3.652 16.572-5.939 22.784-2.714 7.373-8.346 18.569-12.493 24.917-3.277 5.001-4.028 6.963-2.662 6.963 0.99 0 8.294-6.281 13.158-11.315 8.346-8.636 13.295-15.701 19.2-27.341 4.591-9.045 7.851-17.732 10.394-27.648 3.004-11.742 3.584-16.555 3.26-27.136-0.341-10.974-2.236-31.437-3.004-32.358-0.375-0.461-0.819-0.512-1.485-0.154-0.973 0.512-14.199 15.121-22.050 24.303-8.090 9.489-14.797 18.159-19.78 25.6-6.11 9.131-12.237 25.139-15.189 39.68l-1.195 5.888-0.41-3.055c-0.222-1.69-0.273-7.68-0.102-13.312 0.341-11.691 0.222-11.23 5.854-22.938l3.379-7.049h1.792c5.786 0 10.001-5.837 8.67-12.032-1.587-7.407-11.639-12.134-16.299-7.663-2.475 2.372-3.277 7.646-1.963 12.868 0.546 2.202 0.512 2.389-0.751 3.652-0.734 0.734-1.468 1.212-1.621 1.058s-0.341-6.246-0.393-13.551l-0.119-13.261 3.226-8.653c8.619-23.074 16.299-38.741 25.685-52.292 4.147-5.99 13.414-18.432 15.65-20.992l1.331-1.536-0.273 5.888c-0.887 19.558-8.909 42.223-20.821 58.795-4.523 6.315-3.942 7.356 2.014 3.601 5.342-3.362 12.834-9.677 17.033-14.336 12.459-13.807 18.978-29.559 20.429-49.271 0.973-13.329-0.649-39.987-2.662-43.981-0.273-0.495-0.887-0.905-1.399-0.905-1.178 0-23.023 21.282-30.703 29.901-12.169 13.653-16.196 19.49-20.77 30.071-3.703 8.585-5.342 13.329-9.83 28.587-2.116 7.168-4.045 13.397-4.301 13.824-0.273 0.478-0.461-30.618-0.461-78.319l0.017-79.121 1.707 3.328c3.533 6.912 7.202 18.022 8.96 27.136 2.15 11.145 2.304 13.483 2.321 37.086 0.017 22.801 0.154 24.627 1.673 22.716 1.126-1.417 6.366-22.477 8.567-34.458 2.014-10.94 2.577-17.852 1.911-23.689-1.331-11.759-5.769-24.781-11.776-34.56-1.161-1.894-2.901-5.018-3.857-6.929-1.673-3.328-7.168-17.647-9.506-24.832-1.843-5.632-2.85-5.222-4.591 1.894-1.707 6.963-4.198 13.193-10.547 26.402-3.174 6.622-6.605 14.575-7.595 17.681-4.915 15.343-6.298 32.683-3.669 45.875 2.355 11.844 8.533 31.539 14.131 45.107 4.506 10.906 4.164 8.243 4.403 34.202 0.119 12.817 0.017 25.071-0.205 27.221l-0.41 3.925-4.864-4.113c-12.885-10.906-21.385-19.456-26.129-26.334-4.437-6.417-9.353-17.869-12.254-28.604-0.973-3.618-3.601-15.787-3.584-16.623 0-0.478 1.109 0.393 2.662 2.082 1.468 1.587 5.717 6.161 9.455 10.172 6.895 7.39 13.278 16.265 22.613 31.403 4.813 7.799 6.161 8.363 6.178 2.594 0.034-9.506-4.915-23.159-12.988-35.908-7.373-11.639-14.217-19.797-29.065-34.611-14.711-14.694-14.336-14.541-14.95-6.485-0.444 6.059-0.051 25.293 0.717 34.56 1.877 22.477 6.81 41.148 14.182 53.709 6.844 11.622 25.924 26.453 45.892 35.635l4.403 2.031v10.513c0 5.786-0.119 10.53-0.256 10.53s-1.468-0.785-2.935-1.724l-2.697-1.724v-5.308c0-7.356-0.717-8.738-5.888-11.332-4.727-2.372-8.294-2.918-11.435-1.707-6.195 2.372-7.97 9.762-4.147 17.289 2.048 4.045 5.734 6.025 11.247 6.059 1.809 0.017 2.389 0.341 4.676 2.697 4.267 4.403 8.772 10.069 10.018 12.612l1.178 2.372 0.341 60.826-1.587-1.126c-2.953-2.099-12.954-12.032-17.067-16.913-8.090-9.643-16.777-24.201-21.385-35.806-2.458-6.212-6.485-18.261-6.98-20.924l-0.341-1.86 4.608 3.908c8.294 7.031 13.158 11.725 15.77 15.172 2.338 3.089 8.875 13.926 14.251 23.62 1.553 2.782 2.406 3.84 3.157 3.84 0.887 0 1.041-0.393 1.178-2.953 0.358-6.861-2.594-17.579-7.782-28.331-7.373-15.241-18.944-31.061-36.745-50.227-8.55-9.199-10.24-10.684-11.554-10.189-0.717 0.273-0.768 2.202-0.495 17.579 0.734 41.114 6.929 67.26 20.036 84.634 8.448 11.179 22.665 22.562 39.339 31.437l5.513 2.935v10.001c0 8.26-0.119 9.95-0.7 9.728-0.393-0.154-2.816-1.809-5.393-3.703-4.028-2.935-4.642-3.584-4.335-4.523 0.683-2.099 0.324-8.704-0.597-10.974-0.785-1.911-1.348-2.441-4.437-3.994-4.437-2.236-7.561-2.867-10.837-2.167-6.673 1.417-9.267 8.516-5.956 16.23 2.014 4.676 5.939 7.236 11.076 7.236 2.031 0 2.338 0.222 6.229 4.489 6.161 6.741 11.725 13.875 13.295 17.033l1.399 2.816 0.171 30.089c0.102 17.954-0.017 30.089-0.307 30.089-0.256 0-3.021-2.304-6.144-5.12-18.278-16.486-30.908-37.239-39.014-64.171-0.922-3.038-1.536-5.666-1.382-5.837 0.154-0.154 1.741 0.939 3.516 2.458 10.291 8.772 14.097 12.356 16.486 15.565 2.935 3.925 9.37 14.558 13.568 22.391 1.468 2.748 2.901 5.12 3.174 5.291s0.87 0.017 1.314-0.358c0.683-0.563 0.768-1.451 0.495-5.547-1.399-21.026-18.398-48.998-48.947-80.555-7.936-8.192-7.458-8.943-7.39 11.674 0.068 19.473 1.092 30.925 4.028 45.585 4.369 21.743 10.291 34.355 21.897 46.626 8.226 8.687 20.309 17.545 32.956 24.149 6.383 3.328 6.451 3.396 6.144 4.898-0.171 0.836-0.307 5.683-0.307 10.735 0 7.595-0.119 9.165-0.7 8.943-0.393-0.154-2.816-1.809-5.393-3.703-4.028-2.935-4.642-3.584-4.335-4.523 0.683-2.099 0.324-8.704-0.597-10.974-0.768-1.911-1.365-2.441-4.54-4.079-3.294-1.69-4.045-1.877-7.782-1.894-3.686-0.017-4.369 0.137-6.315 1.434-3.891 2.577-5.103 7.475-3.191 12.988 2.014 5.82 5.035 8.294 10.65 8.755l3.294 0.273 4.028 4.403c6.11 6.673 11.674 13.807 13.227 16.947l1.399 2.816 0.171 30.089c0.102 18.5-0.017 30.089-0.307 30.089-0.785 0-11.895-10.308-15.241-14.131-12.083-13.824-19.456-26.146-25.771-42.957-2.953-7.902-5.956-17.613-5.547-18.022 0.444-0.444 13.039 10.564 17.289 15.104 4.096 4.369 7.902 10.223 14.729 22.545 2.389 4.318 4.676 7.987 5.086 8.141 2.441 0.939 2.116-7.919-0.649-17.476-5.564-19.217-21.572-42.906-46.302-68.557-8.533-8.841-7.987-9.574-7.936 10.889 0.068 21.026 1.348 34.287 4.847 49.886 4.557 20.292 10.633 31.983 23.245 44.629 8.977 9.011 17.562 15.326 30.225 22.238l6.144 3.362 0.137 14.217c0.137 13.449 0.085 14.182-0.768 13.722-0.495-0.273-2.867-1.963-5.257-3.738l-4.352-3.243 0.239-2.048c0.614-5.069-0.307-10.718-1.98-12.203-0.461-0.41-2.338-1.519-4.164-2.458-2.901-1.502-3.823-1.707-7.202-1.707-3.345 0-4.164 0.188-5.956 1.365-3.874 2.56-5.205 7.612-3.413 13.005 2.014 6.042 5.547 8.926 10.94 8.926h2.867l3.584 3.977c5.052 5.581 10.803 12.698 12.868 15.923 2.441 3.806 2.662 6.878 2.679 38.639 0.017 25.719-0.017 26.505-0.939 26.010-1.826-0.973-14.029-13.073-18.074-17.937-4.42-5.291-11.298-15.394-14.66-21.538-1.161-2.116-3.294-6.605-4.745-9.984-2.918-6.793-8.806-24.081-8.567-25.173 0.171-0.768 8.516 5.99 14.899 12.066 5.495 5.222 10.001 11.947 18.33 27.324 2.662 4.898 3.465 6.007 4.301 5.888 0.87-0.119 1.041-0.597 1.178-3.106 0.085-1.621-0.188-4.966-0.631-7.424-3.567-20.48-20.139-46.677-46.711-73.847-7.1-7.253-7.817-7.868-8.653-7.168s-0.887 1.929-0.614 17.647c0.768 44.476 8.26 72.073 24.337 89.617 8.892 9.711 21.487 18.927 35.328 25.856l5.222 2.611v14.114c0 11.742-0.119 14.063-0.7 13.841-0.393-0.154-2.799-1.809-5.376-3.686-4.284-3.123-4.642-3.533-4.335-4.762 0.563-2.304 0.41-6.912-0.324-9.506-0.819-2.884-3.021-4.762-7.526-6.451-9.933-3.721-17.732 3.004-14.848 12.834 1.809 6.178 5.12 9.097 10.889 9.557l3.277 0.256 3.994 4.403c3.789 4.198 8.431 9.83 11.52 14.012 3.243 4.386 3.106 2.901 3.328 35.84 0.119 18.517 0 30.089-0.29 30.089-0.785 0-11.895-10.308-15.241-14.131-14.507-16.606-22.835-31.881-29.713-54.494-1.041-3.413-1.758-6.332-1.587-6.485 0.717-0.717 16.981 14.131 20.275 18.534 2.526 3.362 8.226 12.749 12.561 20.651 1.894 3.465 3.806 6.451 4.215 6.605 1.826 0.7 2.185-3.516 0.922-10.667-3.55-20.207-19.814-45.995-45.978-72.926-7.765-7.987-8.499-8.619-9.353-7.919s-0.887 1.86-0.614 17.664c0.58 33.143 4.847 56.474 13.414 73.506 8.192 16.282 25.088 31.351 48.060 42.82 2.577 1.297 4.762 2.423 4.864 2.509s0.614 3.806 1.126 8.277c0.529 4.454 1.553 12.339 2.287 17.51s1.246 9.609 1.161 9.882c-0.273 0.836-5.82-3.618-7.612-6.11-1.655-2.304-1.69-2.441-1.724-8.021-0.051-6.758-0.683-8.311-5.086-12.476-6.127-5.803-12.732-6.827-18.125-2.833-3.584 2.662-4.045 6.144-1.69 12.902 1.741 4.983 3.567 7.151 8.431 10.001 1.758 1.024 4.215 2.918 5.461 4.215 3.106 3.209 10.479 9.557 19.678 16.913 7.27 5.82 7.731 6.298 8.636 8.926 0.512 1.519 2.372 5.769 4.13 9.421 10.871 22.75 29.559 42.103 52.531 54.426 5.922 3.174 18.057 8.26 19.797 8.277 0.734-0.051 1.348-0.375 1.502-0.768zM208.777 936.516c-7.373-4.745-12.732-9.574-18.364-16.538-1.024-1.28-0.853-1.178 6.639 3.823 7.287 4.864 11.281 7.014 13.722 7.407 3.669 0.597 4.164 0.99 3.823 3.157-0.444 2.833-1.058 4.25-1.86 4.25-0.358 0.017-2.15-0.922-3.959-2.099zM155.904 406.869c-0.444-9.267-0.393-17.084 0.119-21.589 0.461-4.028 2.389-8.516 8.107-19.046l3.413-6.281 3.174 0.324c1.843 0.188 3.84 0.102 4.762-0.222 0.87-0.307 1.587-0.478 1.587-0.375s-1.417 2.423-3.123 5.154c-5.854 9.318-8.823 16.845-13.739 34.816-1.997 7.322-3.703 13.551-3.789 13.824s-0.324-2.697-0.512-6.605zM793.549 959.334c28.501-11.162 52.497-33.314 65.451-60.382 1.758-3.669 3.601-7.902 4.13-9.438 0.87-2.56 1.382-3.123 6.537-7.168 8.96-7.031 18.227-14.882 21.555-18.227 1.69-1.707 4.25-3.755 5.7-4.54 4.352-2.372 6.69-5.171 8.397-10.086 2.355-6.758 1.894-10.24-1.69-12.902-5.393-3.994-11.401-3.072-17.954 2.765-4.489 3.994-5.205 5.7-5.239 12.544-0.034 5.564-0.068 5.717-1.724 8.021-1.57 2.185-7.1 6.81-7.578 6.349-0.119-0.119 0.358-3.516 1.058-7.561 1.604-9.284 2.662-16.503 3.84-26.556 0.905-7.578 1.109-8.346 4.42-16.896 6.775-17.459 13.585-32.324 20.531-44.817 3.942-7.083 22.135-34.833 22.562-34.406 0.444 0.444-0.802 10.633-2.116 17.545-3.823 19.866-13.841 42.889-27.017 62.054-2.338 3.396-2.85 5.257-1.451 5.257 1.161 0 9.865-6.366 13.961-10.189 18.876-17.664 31.027-45.261 34.526-78.404 1.178-11.11 0.512-18.125-3.618-38.383-1.28-6.263-1.86-7.492-3.191-6.758-1.843 1.041-31.061 43.708-36.386 53.18-3.533 6.263-10.274 19.849-13.039 26.266-1.843 4.267-6.878 17.493-8.192 21.504-0.649 1.997-0.956-5.205-0.802-19.2l0.171-15.36 1.946-3.516c2.185-3.942 5.7-8.875 11.827-16.538 4.079-5.103 4.198-5.205 6.707-5.547 5.547-0.751 8.499-3.106 10.172-8.175 3.891-11.725-5.137-19.388-15.991-13.602-4.335 2.304-5.632 3.857-6.315 7.509-0.461 2.509-0.427 3.721 0.256 6.605l0.819 3.55-3.686 3.465c-6.093 5.717-5.495 7.134-5.495-12.954v-17.459l2.748-6.758c6.417-15.735 14.985-33.519 21.862-45.414 3.977-6.878 21.248-33.604 22.016-34.082 0.631-0.393 0.597 0.563-0.29 7.782-2.133 17.203-7.253 33.246-16.145 50.62-4.557 8.909-7.902 14.592-12.425 21.094-1.57 2.253-2.441 3.994-2.253 4.489 0.444 1.161 0.836 1.041 4.489-1.314 12.186-7.868 22.801-20.719 29.935-36.284 8.175-17.818 12.681-39.561 12.646-60.945-0.017-7.543-1.621-27.204-2.628-32.256-0.666-3.362-1.826-2.475-9.933 7.68-18.739 23.433-29.867 39.526-35.959 52.019-4.847 9.95-6.161 13.227-10.496 26.078-2.748 8.158-3.533 9.967-3.806 8.943-0.188-0.717-0.273-7.748-0.188-15.616l0.154-14.319 1.417-2.901c1.604-3.277 6.793-10.564 12.766-17.971 3.345-4.147 4.267-5.001 5.444-5.001 3.021 0 6.571-1.502 8.431-3.55 3.362-3.721 4.437-10.889 2.321-15.275-1.86-3.823-6.366-5.786-10.974-4.762-3.362 0.751-8.823 3.977-10.001 5.888-1.348 2.202-1.673 6.144-0.836 10.172l0.717 3.482-8.806 8.090-0.154-17.527c-0.102-12.151 0.034-18.159 0.444-19.575 2.202-7.612 16.23-37.513 23.671-50.449 3.789-6.571 21.197-33.775 22.426-35.038 0.649-0.666 0.614 0.358-0.307 8.141-2.628 22.528-12.817 48.384-27.716 70.383-1.792 2.645-3.26 5.12-3.26 5.495 0 2.816 9.523-3.584 17.596-11.827 11.588-11.827 19.456-25.463 25.327-43.878 4.676-14.694 7.851-34.867 7.049-44.732-0.683-8.363-5.018-31.437-6.025-32.068-0.324-0.205-0.887-0.256-1.263-0.102-0.751 0.29-17.271 21.385-23.774 30.345-14.524 20.053-22.494 35.209-30.993 58.914-2.594 7.236-3.277 8.704-3.55 7.629-0.188-0.734-0.256-7.868-0.171-15.872l0.171-14.541 1.946-3.516c2.167-3.925 5.666-8.806 11.827-16.555 4.079-5.12 4.198-5.222 6.707-5.547 7.117-0.939 11.008-5.769 11.008-13.687 0-8.858-8.073-12.749-16.828-8.073-4.335 2.304-5.632 3.84-6.315 7.509-0.461 2.509-0.427 3.721 0.256 6.622l0.819 3.55-3.686 3.465c-6.059 5.683-5.495 6.793-5.495-10.513v-15.019l3.516-10.223c8.38-24.354 13.329-34.679 28.16-58.726 5.922-9.609 7.526-11.878 7.663-10.871 0.256 1.963-1.28 14.37-2.509 20.309-3.209 15.548-10.581 33.263-19.405 46.609-5.137 7.782-4.796 8.789 1.621 4.676 17.562-11.264 30.635-29.935 36.233-51.763 2.765-10.786 2.85-11.947 2.731-38.81-0.068-13.807-0.29-26.829-0.512-28.928-0.341-3.345-0.529-3.84-1.399-3.84-1.365 0-18.722 19.371-27.648 30.857-1.365 1.758-2.56 3.14-2.645 3.055s0.102-1.126 0.393-2.321c1.468-5.82-5.274-12.339-12.186-11.759-3.499 0.29-8.363 2.765-9.421 4.796-0.819 1.604-1.007 6.758-0.375 10.189 0.358 1.929 0.256 2.185-1.946 4.608l-2.321 2.56 0.341-26.112 2.116-7.936c2.321-8.67 6.315-20.685 9.165-27.614 4.301-10.428 7.97-16.998 22.153-39.731 6.263-10.035 6.246-10.052 4.966 1.058-2.389 20.685-8.653 38.554-19.285 55.006-3.123 4.847-4.198 7.185-3.26 7.185 1.519 0 8.755-5.99 14.046-11.622 14.285-15.206 24.474-34.901 29.628-57.293 3.447-15.019 3.55-21.367 0.802-48.589-0.819-8.073-1.212-9.301-2.782-8.465-0.99 0.529-17.237 18.654-24.781 27.648-5.461 6.502-13.67 17.374-16.811 22.272-6.639 10.342-11.776 23.757-15.275 39.902l-1.451 6.707 0.273-28.16 1.536-3.84c0.836-2.116 2.816-6.383 4.386-9.472l2.833-5.632 2.389-0.341c4.625-0.666 7.629-3.55 8.277-7.902 0.734-4.881-2.27-10.018-7.168-12.305-8.175-3.806-13.756 2.372-11.383 12.612l0.768 3.328-1.621 1.365-1.621 1.348-0.273-26.419 3.379-9.626c6.298-17.937 15.087-36.557 22.801-48.367 3.26-4.983 13.892-19.388 19.012-25.771 0.87-1.075 0.887-1.058 0.887 1.468 0.017 4.028-1.434 14.78-2.85 21.146-3.482 15.616-11.418 32.819-20.002 43.418-1.843 2.27-2.185 3.789-0.87 3.789 1.297 0 6.537-3.379 11.93-7.68 15.172-12.1 24.815-27.989 28.757-47.394 2.219-10.94 1.826-41.506-0.7-52.48-1.058-4.625-1.434-4.437-12.715 6.502-34.219 33.143-39.765 41.762-50.654 78.592-2.27 7.68-4.198 14.046-4.284 14.131-0.614 0.614-0.802-19.541-0.819-83.575 0-41.728 0.188-73.506 0.444-73.233 0.887 0.973 5.103 10.871 6.878 16.128 1.929 5.734 4.028 15.019 4.932 21.743 1.126 8.363 1.536 24.303 0.99 38.093-0.546 13.909-0.393 15.616 1.314 13.875 1.382-1.399 7.168-24.013 9.54-37.188 3.618-20.139 0.597-35.567-11.042-56.508-3.925-7.066-7.253-14.967-11.332-26.863-3.089-9.011-4.113-9.933-5.342-4.762-2.116 8.96-4.42 14.797-11.366 28.843-7.219 14.626-10.82 26.743-12.151 40.926-1.348 14.336-0.154 22.409 6.485 43.793 2.167 7.014 7.953 22.989 10.65 29.44l1.929 4.608 0.324 15.36c0.188 8.448 0.205 20.975 0.068 27.819l-0.273 12.459-7.68-6.554c-9.318-7.936-18.432-17.015-22.409-22.306-5.222-6.963-8.602-14.234-12.356-26.641-1.673-5.495-5.137-20.838-4.796-21.18 0.085-0.085 4.25 4.267 9.25 9.677 9.865 10.65 14.080 16.282 23.706 31.744 4.096 6.554 6.246 9.574 6.793 9.472 2.901-0.563 0.751-14.746-3.857-25.225-6.912-15.77-17.954-30.498-37.137-49.545-10.308-10.24-13.090-12.476-14.165-11.418-0.631 0.631-0.734 24.132-0.137 33.929 1.434 23.603 5.188 41.011 11.81 54.733 3.311 6.827 7.014 11.878 12.646 17.169 7.987 7.509 19.729 15.326 32.375 21.538l7.646 3.772 0.034 10.65c0.034 8.397-0.102 10.581-0.597 10.274-0.358-0.205-1.655-1.024-2.901-1.809l-2.253-1.417-0.051-5.513c-0.068-7.663-0.58-8.687-5.734-11.23-3.396-1.673-4.489-1.963-7.339-1.98-4.181 0-6.793 1.195-8.636 3.977-2.594 3.908-1.963 10.394 1.536 15.548 1.553 2.304 4.847 3.84 8.892 4.164l3.294 0.273 3.516 3.703c4.847 5.103 7.714 8.789 8.926 11.52 0.939 2.099 1.058 3.789 1.382 18.944 0.188 9.148 0.222 22.801 0.102 30.327l-0.256 13.687-1.843-1.57c-4.079-3.482-13.227-12.732-16.759-16.964-8.294-9.916-16.435-23.808-21.367-36.471-2.697-6.929-7.185-20.736-6.844-21.060 0.273-0.273 11.571 9.591 16.009 13.978 4.557 4.506 9.199 11.418 16.538 24.627 4.574 8.243 5.82 9.455 6.366 6.144 0.273-1.707-0.273-8.636-0.922-11.383-4.198-18.227-17.852-40.516-39.253-64.085-8.841-9.745-14.541-15.223-15.428-14.882-1.263 0.478-1.604 8.994-0.939 23.671 1.195 26.709 4.147 44.868 9.66 59.665 3.362 9.028 6.639 14.677 12.817 22.135 8.243 9.95 24.064 21.931 38.161 28.877l3.977 1.963v10.138c0 5.564-0.119 10.138-0.256 10.138s-2.423-1.604-5.069-3.55l-4.813-3.55 0.273-4.062c0.393-5.786-0.785-9.421-3.652-11.247-10.035-6.366-19.763-3.191-19.763 6.468 0 8.294 5.001 13.909 12.407 13.909 2.219 0 2.423 0.137 5.871 3.977 5.564 6.178 11.827 14.285 13.312 17.203l1.348 2.645 0.358 16.896c0.188 9.301 0.239 22.938 0.102 30.327-0.239 12.407-0.324 13.38-1.126 12.954-1.758-0.939-13.534-12.629-17.51-17.374-12.817-15.309-21.077-31.881-28.416-57.105-0.205-0.683 0.751-0.137 2.97 1.724 7.834 6.502 14.933 13.107 17.050 15.872 2.867 3.721 9.472 14.473 13.295 21.641 1.604 3.004 3.26 5.751 3.686 6.093 1.365 1.143 1.946-0.239 1.86-4.42-0.324-15.599-10.479-36.386-29.082-59.546-9.011-11.213-24.661-27.75-26.266-27.75-0.785 0-0.99 0.563-1.263 3.465-0.768 8.107 0.017 27.511 1.741 42.889 2.304 20.634 7.287 38.519 13.739 49.391 7.646 12.868 21.538 25.31 39.987 35.806 3.516 1.997 7.168 3.891 8.124 4.215l1.724 0.563-0.188 10.667c-0.102 5.871-0.341 10.803-0.529 10.991s-2.475-1.246-5.086-3.191l-4.762-3.516-0.034-5.359c-0.034-7.185-0.853-8.772-5.666-11.179-7.305-3.635-14.643-2.185-16.964 3.345-1.024 2.458-0.853 6.861 0.393 10.189 1.946 5.171 5.837 7.902 11.315 7.902 2.219 0 2.423 0.137 5.871 3.977 5.564 6.178 11.827 14.285 13.312 17.203l1.348 2.645 0.358 16.896c0.393 18.347 0.068 43.776-0.529 43.776-0.905 0-15.241-14.421-19.046-19.149-8.67-10.769-15.633-22.75-20.548-35.396-2.611-6.724-7.185-20.719-6.861-21.043 0.239-0.239 10.65 8.875 15.428 13.517 5.632 5.478 10.889 13.244 18.193 26.812 1.468 2.714 3.004 5.239 3.43 5.581 1.365 1.143 1.946-0.222 1.86-4.42-0.324-16.282-10.803-37.052-31.386-62.276-7.253-8.875-22.733-25.003-24.013-25.003-0.734 0-0.956 0.631-1.229 3.465-0.768 8.107 0.017 27.511 1.741 42.889 2.219 19.831 6.929 37.274 13.022 48.162 7.868 14.063 24.713 29.047 44.169 39.287l5.769 3.038v28.706l-1.673-1.263c-0.922-0.7-3.209-2.372-5.103-3.721l-3.43-2.458 0.307-3.908c0.41-5.239-0.7-9.199-3.072-11.008-4.386-3.345-10.428-4.659-14.404-3.14-2.782 1.075-5.239 3.738-5.7 6.229-1.195 6.366 2.287 14.234 7.117 16.060 0.785 0.307 2.748 0.546 4.352 0.546h2.918l5.239 6.007c6.724 7.731 10.786 13.107 12.083 16.009 0.939 2.099 1.058 3.772 1.382 18.944 0.188 9.148 0.222 22.801 0.102 30.327l-0.256 13.687-2.56-2.15c-13.141-10.991-26.573-28.399-33.485-43.401-3.772-8.175-11.349-29.44-10.718-30.071 0.427-0.427 16.043 13.278 18.705 16.435 3.379 3.994 8.55 12.237 14.626 23.245 4.796 8.704 6.349 8.38 5.393-1.161-0.512-5.018-0.7-5.905-2.662-12.032-5.171-16.196-17.732-35.686-36.471-56.576-8.892-9.899-15.411-16.316-16.282-16.026-1.399 0.461-1.758 11.844-0.887 27.529 1.655 30.003 5.888 50.022 13.875 65.553 5.478 10.65 14.95 20.736 28.348 30.191 5.257 3.703 15.138 9.472 19.388 11.315l2.884 1.246v14.217c0 7.817-0.102 14.217-0.256 14.217-0.137 0-2.441-1.604-5.086-3.567l-4.83-3.567 0.29-3.755c0.41-5.461-0.734-9.131-3.499-11.127-6.144-4.454-13.841-4.659-17.698-0.461-4.881 5.325-1.263 17.681 5.803 19.797 1.161 0.341 3.123 0.631 4.386 0.631 2.253 0 2.355 0.068 6.861 5.171 5.41 6.127 11.059 13.517 12.595 16.503 1.041 2.014 1.126 3.123 1.451 19.046 0.375 17.869 0.068 43.793-0.495 43.793-0.785 0-14.182-13.278-18.005-17.852-8.585-10.24-16.265-23.177-21.367-35.959-2.543-6.383-7.475-21.402-7.151-21.743 0.273-0.273 10.359 8.533 15.428 13.466 5.086 4.949 8.755 10.223 15.667 22.477 2.509 4.454 5.035 8.687 5.598 9.387 1.638 2.031 2.338 0.785 2.236-3.942-0.41-20.258-18.142-49.903-48.299-80.759-3.84-3.925-6.741-6.502-7.168-6.366-1.468 0.478-1.843 11.52-0.956 27.546 1.621 29.491 6.059 50.654 13.636 65.024 3.567 6.775 7.561 11.998 14.78 19.285 8.806 8.909 19.285 16.657 31.744 23.501 1.963 1.075 3.669 2.031 3.772 2.099 0.41 0.324-2.099 17.835-3.226 22.528-1.348 5.598-3.772 12.493-4.369 12.493-0.922 0-5.052-5.12-5.888-7.305-1.161-3.021-0.87-6.622 0.751-9.677 1.417-2.662 1.57-6.588 0.324-8.994-1.263-2.423-4.83-6.417-6.929-7.697-3.84-2.372-11.349-0.973-15.036 2.816-2.543 2.611-3.465 5.052-3.465 9.199 0 6.144 2.082 8.431 10.24 11.281 5.086 1.775 5.7 2.526 8.141 10.103 1.997 6.161 2.748 11.81 2.526 18.825-0.171 5.495-0.29 6.025-2.065 9.626-1.041 2.099-3.055 5.12-4.489 6.707-6.639 7.441-19.541 14.78-34.935 19.9-3.482 1.161-6.588 2.372-6.912 2.714-0.853 0.853-11.435 36.642-11.093 37.53 0.546 1.041 1.98 0.751 8.363-1.741zM805.683 938.103c-0.171-0.29-0.461-1.775-0.614-3.294-0.29-2.731-0.273-2.782 1.195-3.089 5.444-1.126 8.38-2.594 17.34-8.67 6.4-4.352 6.093-4.181 5.427-2.901-1.86 3.482-10.325 11.076-17.681 15.889-4.062 2.645-5.086 3.021-5.666 2.065zM876.1 398.985c0-10.462 0.171-14.404 0.751-16.64 0.785-2.987 5.171-12.151 8.892-18.551l2.082-3.584 3.994-0.017c2.202-0.017 4.437-0.222 4.983-0.478 0.956-0.444 0.956-0.393-0.068 1.041-2.372 3.345-6.332 10.513-8.619 15.582-3.021 6.707-5.001 12.749-8.482 25.993-1.502 5.7-2.918 10.377-3.14 10.377-0.205 0-0.393-6.178-0.393-13.722zM726.955 775.851c0.102-38.315-0.017-52.617-0.444-53.129-0.478-0.563-5.547-0.7-28.16-0.7h-27.58l-0.273-90.897-76.305-0.512-2.884-1.161c-4.13-1.673-6.793-3.772-8.021-6.332-0.631-1.314-1.382-4.642-1.826-8.107-1.485-11.366-3.857-19.934-7.612-27.392-3.533-7.049-6.861-11.264-13.397-16.947-2.236-1.946-5.513-5.342-7.305-7.543-3.055-3.772-3.243-4.181-3.243-6.656 0-3.072 1.297-13.38 1.775-14.148 0.188-0.307 2.543-0.529 5.615-0.529 4.352 0 5.342-0.137 5.598-0.802 0.614-1.604 0.341-18.415-0.307-19.063-0.341-0.341-1.69-0.614-3.004-0.614h-2.389l-0.324-2.441c-0.495-3.721-2.577-7.595-5.615-10.53-1.997-1.929-2.85-3.174-3.106-4.574-0.188-1.058-0.922-3.123-1.604-4.608-1.229-2.628-1.621-5.717-0.87-6.844 0.205-0.307 1.143-0.956 2.082-1.451 2.082-1.075 3.157-3.43 3.157-6.946 0-5.052 1.741-7.168 7.782-9.438l3.243-1.212 0.137-11.588c0.137-11.435 0.154-11.605 1.28-12.083 1.792-0.768 20.463-5.478 27.255-6.861 9.199-1.877 15.070-3.721 17.92-5.632 1.399-0.939 2.884-1.877 3.26-2.099 0.393-0.222 3.516-0.58 6.963-0.802 9.591-0.614 15.77-2.611 17.835-5.769 0.495-0.751 1.519-1.365 2.611-1.57 5.137-0.956 10.325-4.693 13.807-9.916 2.304-3.447 2.475-3.601 5.956-4.71 1.963-0.631 5.308-2.133 7.407-3.328 3.772-2.15 11.179-7.97 12.954-10.155 0.495-0.614 2.441-1.877 4.335-2.799 4.13-2.014 7.27-5.376 10.018-10.735 1.041-2.048 2.338-3.857 2.85-4.011 1.246-0.393 6.383-5.649 10.223-10.445 1.69-2.116 3.703-4.215 4.471-4.693 1.809-1.109 2.953-2.765 5.82-8.499 1.297-2.611 2.594-4.745 2.867-4.745 0.802 0 5.871-7.117 7.851-11.008 2.253-4.42 4.608-10.53 6.042-15.616 0.87-3.123 1.553-4.352 3.601-6.605 3.123-3.43 5.018-7.1 6.775-13.261 0.751-2.611 2.048-5.854 2.867-7.202 1.894-3.072 3.738-7.919 5.103-13.466 0.58-2.355 1.741-5.769 2.56-7.612 1.724-3.84 2.56-7.202 6.11-24.969 2.611-12.988 3.226-16.896 6.263-40.073 1.877-14.251 2.065-22.255 0.717-31.488-1.621-11.179-3.089-38.349-2.338-43.264 0.341-2.27 1.399-5.137 3.294-8.96 3.686-7.441 4.045-8.789 3.772-13.756-0.666-12.049-9.779-18.876-25.225-18.876-8.431 0-17.579 2.423-21.845 5.803-4.079 3.243-7.117 10.513-7.1 17.033 0.017 4.062 0.956 6.724 3.533 9.933 2.816 3.516 3.191 5.427 3.772 19.081 0.717 17.033 0.631 21.094-0.631 26.385-0.922 3.874-1.024 5.393-0.717 11.588l0.341 7.117-1.485 2.935c-1.297 2.577-1.502 3.533-1.57 7.799-0.051 3.021-0.495 6.485-1.178 9.114-0.836 3.26-1.143 6.417-1.348 13.568-0.137 5.12-0.495 11.127-0.785 13.346-0.649 4.932-3.738 16.026-6.912 24.764-1.604 4.403-2.56 8.107-3.004 11.503-0.529 4.13-0.973 5.53-2.458 8.038-1.263 2.116-2.492 5.598-4.096 11.486l-2.287 8.465-4.71 5.086c-6.059 6.554-12.783 15.599-21.606 29.030-3.874 5.922-7.612 11.571-8.277 12.561-0.922 1.348-2.509 2.423-6.229 4.233-8.499 4.113-12.698 7.322-16.998 13.005-0.649 0.853-4.864 3.516-10.394 6.554-5.12 2.816-11.418 6.639-14.012 8.482-7.117 5.086-19.149 9.899-28.791 11.503-6.332 1.058-11.213 2.509-13.568 4.028-1.143 0.734-4.983 1.86-10.496 3.089-4.796 1.058-10.428 2.458-12.544 3.089-4.659 1.417-10.82 2.918-11.042 2.697-0.546-0.546-1.263-13.978-0.905-16.998l0.427-3.533 3.174-0.649c4.215-0.853 13.67-3.84 19.371-6.11 2.526-1.007 7.031-2.27 9.984-2.816s6.878-1.468 8.704-2.065c5.001-1.621 12.151-5.171 15.616-7.731 2.065-1.519 4.215-2.577 6.537-3.209 3.652-0.99 6.963-3.021 8.363-5.154 0.461-0.717 1.229-1.297 1.69-1.297s4.523-1.502 9.011-3.328c7.253-2.953 8.482-3.635 10.906-6.007 1.502-1.485 3.789-4.386 5.086-6.468 2.441-3.908 8.567-10.359 12.254-12.902 3.072-2.116 7.731-7.407 10.854-12.322 9.387-14.746 11.025-17.613 17.391-30.396 1.758-3.516 6.212-16.367 9.079-26.163 1.314-4.471 3.038-10.24 3.84-12.783 3.755-11.895 6.622-35.447 7.663-62.942 0.256-6.622 0.597-12.254 0.768-12.527s-0.154-2.935-0.734-5.922c-2.662-13.807-0.171-31.539 6.212-44.169 2.492-4.932 2.987-6.332 2.987-8.55 0-4.028-1.297-7.134-4.386-10.462-8.192-8.858-22.135-10.257-35.959-3.618-10.598 5.086-14.882 8.789-18.125 15.667-3.277 6.963-3.174 12.237 0.324 16.981 4.267 5.803 4.949 7.987 7.168 23.057 2.645 17.954 3.004 21.845 2.15 23.535-1.058 2.065-1.86 6.4-1.86 10.001 0 1.741-0.546 5.82-1.212 9.062-1.911 9.318-1.98 10.769-0.853 19.575l1.041 8.055-1.246 1.246c-2.185 2.185-3.038 6.383-2.662 13.278l0.324 6.042-3.004 4.966c-4.079 6.758-6.997 12.681-8.858 17.954-1.741 4.915-3.703 9.011-6.554 13.636-1.041 1.69-2.509 4.147-3.243 5.461-0.922 1.621-1.86 2.56-2.97 2.953-0.887 0.307-4.301 2.338-7.561 4.523-6.775 4.506-14.455 11.793-16.708 15.838-1.246 2.219-1.963 2.884-4.813 4.284-4.813 2.372-9.916 5.769-12.203 8.141-1.536 1.587-2.697 2.219-5.274 2.884-5.001 1.297-10.667 3.601-13.79 5.632-3.482 2.253-24.832 12.902-26.761 13.346l-1.417 0.324v-4.796c0-2.628-0.273-8.414-0.597-12.851s-0.495-8.175-0.358-8.311 2.611-0.734 5.513-1.314c10.496-2.099 23.228-6.468 32.905-11.264 10.462-5.188 15.77-9.472 18.654-15.087 1.212-2.355 1.98-3.174 3.925-4.164 2.884-1.468 4.932-4.096 10.359-13.175 2.15-3.618 4.983-7.868 6.281-9.472 2.492-3.055 4.335-6.724 6.878-13.619 0.836-2.27 2.867-7.475 4.523-11.554 4.471-11.059 6.605-19.337 7.458-28.928 0.222-2.441 0.785-4.915 1.399-6.144 2.167-4.301 1.604-11.469-1.451-18.142l-1.263-2.782 0.751-8.499c0.41-4.676 0.887-12.868 1.075-18.227 0.341-10.581 1.382-22.357 2.492-28.416 0.393-2.116 1.126-6.11 1.638-8.875 1.075-5.786 0.649-9.387-1.502-12.612-3.703-5.598-16.077-9.37-30.805-9.387-12.561-0.017-16.384 1.417-23.808 8.841-5.666 5.666-9.062 11.093-9.557 15.241-0.427 3.635-0.017 4.779 2.935 8.158 3.806 4.352 8.294 11.349 11.776 18.364 3.533 7.117 4.454 10.957 6.042 25.225 0.717 6.417 0.853 9.284 0.478 10.359-0.41 1.161-0.273 2.219 0.614 4.915 1.348 4.045 1.212 8.226-0.546 17.289-1.809 9.318-3.26 13.193-6.161 16.503-2.782 3.174-3.567 5.205-3.567 9.284 0 1.485-0.205 2.697-0.461 2.697s-1.297 0.87-2.338 1.929c-2.167 2.202-4.83 7.475-6.4 12.681-0.939 3.106-1.536 4.045-4.523 7.083-4.54 4.608-10.974 10.001-14.37 12.066-4.335 2.628-7.543 3.669-14.404 4.676-3.516 0.529-7.356 1.109-8.516 1.297l-2.116 0.341-0.358-4.796c-0.205-2.731-0.119-6.656 0.188-9.131 1.178-9.335 0.649-15.462-1.587-18.517-0.836-1.143 0.666-5.069 2.901-7.561 2.099-2.338 2.816-3.738 2.816-5.41 0-1.434-1.673-5.103-2.594-5.666-0.358-0.222-0.444-1.229-0.222-2.782 0.427-3.106-0.631-21.521-1.553-26.829-0.529-3.123-0.563-5.052-0.154-8.619 0.614-5.222-0.034-14.114-1.365-18.842-1.587-5.564-2.389-10.974-2.099-14.029 0.358-3.635 2.219-7.305 10.291-20.275 6.997-11.264 8.021-13.278 8.329-16.401 0.683-7.066-7.202-14.114-21.146-18.859-7.168-2.441-11.708-3.277-18.176-3.328-6.554-0.068-10.786 0.734-16.657 3.157-5.342 2.202-15.445 8.158-16.606 9.796-2.509 3.533-3.243 8.073-2.56 15.872 0.631 7.202 0.922 7.731 8.721 16.418 3.157 3.516 6.178 7.1 6.69 7.936 1.143 1.843 1.195 4.13 0.171 10.24-0.41 2.543-0.768 7.714-0.802 11.52l-0.034 6.912-1.724 1.28c-1.963 1.468-3.328 3.533-3.328 5.035 0 0.58 1.007 2.509 2.236 4.301 3.618 5.274 3.601 5.239 2.065 6.878-0.734 0.785-2.031 2.816-2.884 4.489-1.297 2.577-1.502 3.447-1.28 5.632 0.393 3.703 2.321 8.499 4.113 10.155 1.348 1.263 1.468 1.57 0.939 2.714-0.324 0.7-0.58 1.997-0.58 2.884 0 0.87-0.614 2.884-1.365 4.454-1.86 3.925-1.843 7.526 0.051 11.315 0.785 1.553 1.86 3.311 2.406 3.908 0.99 1.075 0.99 1.092-0.563 2.645-0.853 0.853-1.57 1.894-1.57 2.304s-0.597 2.56-1.331 4.779c-1.161 3.516-1.314 4.847-1.263 10.189 0.034 3.379 0.239 8.499 0.444 11.401 0.444 6.144 0.922 5.803-6.144 4.25-10.359-2.287-16.435-5.905-22.545-13.431-2.15-2.662-5.342-5.871-7.134-7.185-3.072-2.253-3.294-2.56-4.233-5.871-1.485-5.222-4.113-10.086-6.656-12.322-2.116-1.86-2.219-2.099-2.253-4.864-0.051-3.755-1.126-6.246-3.908-9.097-2.765-2.833-4.557-6.724-6.4-14.029l-1.417-5.581 1.041-2.355c1.434-3.226 1.758-8.448 0.683-11.008-1.502-3.584-0.836-26.18 0.939-32.341 1.741-6.025 9.079-18.534 15.514-26.453 4.471-5.495 5.461-8.175 5.137-13.67-0.256-4.403-1.143-6.554-3.891-9.404-1.997-2.082-5.274-3.379-11.878-4.693-13.602-2.714-34.867-3.157-41.489-0.853-10.598 3.669-17.391 10.342-17.408 17.084 0 2.833 0.734 4.796 3.823 10.103 5.41 9.301 8.704 20.292 9.489 31.744 0.273 4.079 0.768 10.308 1.092 13.824 0.495 5.53 0.461 6.912-0.256 10.086-1.417 6.229-0.802 12.032 1.707 16.282 0.512 0.87 1.297 4.181 1.792 7.68 1.758 12.186 3.942 20.599 8.073 30.976 1.399 3.516 3.447 10.052 4.557 14.507 2.219 8.943 2.765 10.291 5.547 13.653 1.041 1.263 3.738 4.932 5.956 8.141 5.086 7.322 7.031 9.472 9.95 10.957 1.758 0.905 2.662 1.843 3.789 3.959 3.516 6.571 14.95 15.77 27.187 21.879 7.492 3.738 21.504 7.799 26.897 7.799 1.434 0 1.519 0.119 1.519 2.065 0 1.28 0.563 3.174 1.502 5.001 0.836 1.604 1.655 3.533 1.826 4.267 0.427 1.758-2.679 11.708-3.652 11.708-1.929 0-25.771-10.837-30.464-13.858-2.799-1.792-8.055-3.652-12.937-4.574-2.918-0.546-3.772-0.956-5.103-2.423-2.048-2.253-7.356-5.769-11.605-7.68-2.901-1.314-3.703-2.014-6.315-5.478-1.638-2.185-6.605-7.817-11.042-12.51-6.758-7.168-11.895-13.431-18.79-22.903-0.631-0.87-2.782-4.659-4.796-8.414-2.014-3.772-5.342-9.284-7.39-12.254l-3.738-5.41-0.324-7.168c-0.427-9.591-1.843-14.558-4.659-16.418-1.809-1.178-2.338-4.454-2.219-13.551 0.085-6.963-0.034-8.431-1.075-11.964-0.683-2.321-1.246-5.871-1.365-8.363-0.119-2.987-0.461-4.762-1.058-5.683-0.768-1.178-0.836-2.355-0.563-10.069 0.171-4.813 0.563-11.008 0.887-13.79 0.41-3.669 0.41-7.322 0-13.312-0.375-5.513-0.393-9.54-0.068-12.117 0.614-4.779 0.802-5.274 2.987-8.329 2.577-3.584 3.703-6.946 3.703-11.11 0-4.113-1.553-9.011-3.806-11.947-2.697-3.533-10.769-6.468-20.548-7.475-19.61-2.014-38.298 9.387-35.072 21.385 0.324 1.212 1.843 4.42 3.362 7.151 3.703 6.605 6.076 12.663 7.953 20.224 1.399 5.632 1.604 7.509 2.048 19.046 1.246 31.403 1.365 33.212 3.499 48.913 1.161 8.585 2.697 18.773 3.396 22.63 2.679 14.78 8.841 31.778 15.684 43.281 1.98 3.328 4.42 7.663 5.41 9.626 0.99 1.98 3.123 5.769 4.745 8.448s3.908 6.81 5.103 9.165c3.311 6.588 7.629 13.329 10.496 16.367 1.417 1.519 5.239 4.574 8.499 6.81 5.325 3.652 6.229 4.523 9.165 8.67 3.482 4.932 6.929 8.311 9.591 9.438 0.905 0.375 4.096 2.304 7.083 4.284s6.298 3.874 7.322 4.198c1.041 0.341 3.191 1.843 4.796 3.362 2.97 2.816 7.953 5.547 11.162 6.144 0.99 0.188 2.628 1.075 3.652 1.997 4.079 3.652 10.445 6.383 17.357 7.441 2.133 0.324 6.537 1.673 9.984 3.038 8.55 3.413 12.22 4.437 20.429 5.769l7.117 1.143 0.7 2.304c0.597 1.963 0.58 3.072-0.051 7.424-0.41 2.816-0.905 7.014-1.092 9.353-0.324 3.84-0.444 4.233-1.434 4.233-1.963 0-11.913-2.048-16.247-3.345-2.338-0.7-7.936-2.099-12.442-3.106-6.11-1.365-8.704-2.185-10.257-3.26-2.594-1.775-7.936-4.096-13.551-5.888-6.263-1.997-15.394-6.758-21.828-11.383-3.089-2.219-10.121-6.758-15.616-10.069-7.629-4.591-10.291-6.468-11.23-7.919-2.97-4.523-6.059-6.929-12.578-9.779-3.891-1.707-4.454-2.133-6.656-5.188-1.331-1.826-5.257-6.161-8.755-9.626-3.482-3.465-7.305-7.612-8.482-9.216s-3.567-4.42-5.308-6.246c-3.482-3.669-12.646-18.091-14.165-22.272-0.512-1.417-1.468-5.581-2.133-9.25-1.058-5.837-1.485-7.151-3.345-10.24-1.178-1.946-2.714-5.513-3.413-7.902s-3.686-10.001-6.622-16.896c-5.854-13.722-6.366-15.701-6.383-24.832-0.017-5.052-0.034-5.171-2.372-9.779-2.748-5.41-3.311-9.284-2.236-15.326 1.28-7.168 1.246-8.209-0.29-10.871-1.621-2.833-3.482-8.994-4.881-16.265-0.768-4.011-1.109-9.182-1.536-23.808-0.307-10.274-0.41-19.917-0.239-21.419 0.324-3.021 1.126-4.847 3.618-8.277 4.881-6.707 4.062-17.135-1.792-22.989-1.911-1.911-3.243-2.714-6.007-3.601-4.574-1.468-10.479-2.014-16.401-1.519-12.22 1.024-20.548 5.154-24.115 11.947-1.178 2.236-1.365 3.191-1.365 7.219v4.642l3.191 6.366c4.079 8.124 4.506 10.547 3.703 21.197-0.307 4.233-0.666 16.452-0.768 27.153-0.171 16.845-0.051 20.702 0.819 28.672 1.502 13.602 4.386 33.946 5.82 40.96 0.683 3.379 1.621 9.95 2.048 14.592s1.126 9.984 1.519 11.878c0.768 3.703 5.188 12.885 9.267 19.251 1.519 2.372 3.345 6.451 5.052 11.264 3.26 9.199 6.639 15.889 9.933 19.61 1.57 1.792 2.901 3.994 3.686 6.127 3.277 8.994 6.69 14.797 12.186 20.685 1.894 2.031 4.71 5.513 6.246 7.748 1.553 2.236 3.891 4.864 5.222 5.854 1.587 1.195 3.379 3.379 5.257 6.417 1.57 2.526 4.233 5.922 5.905 7.526 2.048 1.963 3.516 3.959 4.523 6.144 2.765 6.042 7.441 10.667 12.39 12.254 1.212 0.393 2.594 1.587 4.318 3.721 4.147 5.171 9.609 9.267 14.182 10.65 1.229 0.375 2.782 1.434 3.925 2.697 4.847 5.359 10.786 9.301 16.384 10.854 2.679 0.734 3.209 1.075 3.209 2.014 0 1.724 2.116 4.471 4.403 5.734 2.423 1.331 8.448 2.697 11.947 2.697 1.775 0 3.226 0.427 5.222 1.536 4.574 2.56 8.175 4.096 10.394 4.437 1.161 0.171 4.062 1.075 6.451 1.98 11.878 4.506 15.36 5.325 28.211 6.758l12.254 1.348v10.377c0 10.069 0.358 13.005 1.604 13.005 0.324 0 2.253 0.802 4.267 1.775 4.369 2.099 5.239 3.447 5.581 8.67 0.256 3.857 1.229 5.717 3.618 6.895 2.56 1.263 2.935 5.086 0.819 8.533-0.512 0.853-1.229 2.662-1.57 4.028-0.495 1.929-1.28 3.123-3.55 5.376-2.918 2.867-5.103 7.117-5.12 9.95-0.017 1.86-0.649 2.338-3.328 2.509l-2.543 0.154v19.968l5.495 0.154c6.315 0.171 5.581-0.58 6.537 6.775 0.307 2.389 0.614 5.751 0.666 7.458l0.085 3.106-3.772 4.659c-2.065 2.56-5.137 5.769-6.81 7.1-11.435 9.165-18.586 24.098-20.941 43.725-0.324 2.679-0.939 5.615-1.365 6.554-1.536 3.294-5.99 6.007-13.892 8.499l-4.215 1.331h-37.001c-28.092 0-37.154 0.154-37.615 0.614s-0.614 11.281-0.614 45.568v44.971h-27.802c-20.941 0-27.955 0.154-28.416 0.614-0.478 0.478-0.614 12.919-0.614 52.924 0 28.774 0.154 52.463 0.341 52.651s97.724 0.29 216.747 0.222l216.405-0.137 0.119-52.497zM307.661 778.086v-40.209h95.266v2.56h-45.995c-35.089 0-46.131 0.154-46.609 0.614-0.461 0.461-0.614 9.813-0.614 38.912 0 37.973 0 38.298-1.024 38.298s-1.024-0.307-1.024-40.175zM429.039 772.966v-43.264h56.593c56.252 0 56.593 0 56.593 1.024s-0.341 1.024-54.699 1.024c-41.865 0-54.835 0.137-55.313 0.614-0.461 0.461-0.614 10.547-0.614 42.24v41.643h-2.56v-43.281zM568.832 774.758v-41.489h147.49v82.961h-147.49v-41.472zM706.492 806.929c0.887-0.887 0.887-64.461 0-65.348s-124.877-0.887-125.781 0c-0.887 0.887-0.887 64.461 0 65.348 0.905 0.887 124.894 0.887 125.781 0zM585.233 774.246v-28.672h116.77v57.344h-116.77v-28.672zM631.023 791.637c4.983-1.86 7.868-6.69 6.963-11.639-0.427-2.338-0.631-2.731-3.191-5.769-2.133-2.56-2.338-3.362-1.195-4.864 1.058-1.399 0.956-2.662-0.273-3.311-0.785-0.427-1.246-0.41-1.826 0.068-1.314 1.092-2.236 3.396-2.236 5.564 0 1.707 0.358 2.475 1.98 4.25 2.509 2.748 3.14 3.977 3.14 6.093 0 2.355-1.553 4.676-3.908 5.837-3.191 1.587-11.861 1.297-17.852-0.597-5.427-1.707-10.633-2.031-10.906-0.649-0.188 0.973 5.854 3.482 12.186 5.052 5.53 1.365 13.414 1.348 17.118-0.034zM681.25 790.665c6.246-2.167 12.766-8.277 11.725-10.991-0.324-0.836-3.277-1.161-3.277-0.358 0 1.263-4.471 5.308-7.543 6.827-3.209 1.587-3.755 1.69-10.138 1.86-7.748 0.222-9.438-0.29-10.871-3.277-0.802-1.69-0.785-2.099 0.273-7.561 1.451-7.475 1.434-8.038-0.375-9.779-2.304-2.202-4.557-0.683-3.072 2.082 0.563 1.058 0.563 1.894 0 4.966-1.28 6.929-1.297 10.291-0.051 12.493 1.178 2.082 3.567 4.011 5.99 4.796 2.577 0.802 13.875 0.137 17.34-1.058zM613.854 775.014c5.973-1.826 8.516-4.727 10.001-11.503 0.905-4.113 1.434-5.12 3.209-6.059 1.348-0.717 2.714-0.273 6.861 2.253 2.987 1.809 6.827 2.697 8.090 1.843 0.461-0.307 0.597-0.939 0.393-1.758-0.239-0.973-0.768-1.365-2.236-1.638-1.058-0.205-3.533-1.314-5.495-2.492-3.089-1.826-3.994-2.133-6.502-2.133-4.557 0-6.315 2.065-8.175 9.626-1.178 4.727-2.185 6.144-5.564 7.731-1.997 0.939-3.328 1.092-9.984 1.161-4.233 0.034-7.97 0.102-8.329 0.137s-0.631 0.614-0.631 1.297c0 0.683 0.29 1.434 0.631 1.655 2.099 1.314 13.227 1.246 17.732-0.119zM677.649 773.734c5.069-1.178 7.475-2.389 11.145-5.615 2.645-2.321 3.226-4.301 1.434-4.864-0.717-0.222-1.826 0.358-3.874 2.014-4.011 3.26-4.813 3.738-7.339 4.301-2.133 0.478-2.219 0.461-1.894-0.614 0.188-0.614 0.461-2.628 0.614-4.489 0.444-5.308-1.468-8.294-6.144-9.591-1.502-0.41-2.56-0.358-4.608 0.239-1.468 0.427-4.113 1.161-5.888 1.621-2.509 0.666-3.277 1.092-3.499 1.98-0.154 0.614-0.137 1.365 0.051 1.673 0.563 0.905 3.465 0.614 7.441-0.734 4.864-1.655 5.888-1.621 7.782 0.273 1.417 1.417 1.536 1.792 1.314 4.079-0.137 1.382-0.973 3.994-1.86 5.803-2.065 4.198-2.099 5.82-0.119 5.222 0.478-0.119 2.918-0.717 5.444-1.297zM317.389 780.134v-30.976h40.209c39.851 0 40.192 0 40.192 1.024s-0.341 1.024-37.922 1.024c-25.173 0-38.263 0.171-38.912 0.529-0.956 0.512-0.99 1.382-0.99 29.952v29.423h-2.56l-0.017-30.976zM439.791 775.014v-34.56h93.713v2.56h-45.517c-41.045 0-45.551 0.085-45.824 0.802-0.171 0.444-0.307 15.428-0.307 33.28 0 32.137-0.017 32.478-1.024 32.478-1.041 0.017-1.041-0.324-1.041-34.56zM504.576 776.294c-0.171-0.273-0.068-0.512 0.222-0.512s0.546 0.222 0.546 0.512-0.102 0.512-0.222 0.512-0.375-0.222-0.546-0.512zM561.152 679.765v-36.096h98.338v72.192h-98.338v-36.096zM649.643 711.168c0.461-0.461 0.614-7.765 0.614-29.679 0-28.211-0.034-29.082-0.99-29.594-0.666-0.358-13.995-0.529-39.714-0.529s-39.066 0.171-39.731 0.529c-0.956 0.512-0.99 1.382-0.99 29.918 0 23.023 0.137 29.44 0.649 29.645 0.358 0.137 18.398 0.273 40.090 0.307 30.054 0 39.612-0.137 40.073-0.597zM573.44 681.557v-25.088h72.192v50.176h-72.192v-25.088zM636.228 700.723c0.188-0.717 0.137-1.502-0.119-1.741-0.239-0.239-2.253-0.905-4.454-1.502-7.083-1.911-9.83-3.738-11.947-7.885-2.338-4.591-2.082-10.121 0.58-12.629 0.922-0.87 2.065-1.263 4.13-1.434 2.782-0.222 2.884-0.188 4.864 1.894 1.365 1.434 2.304 3.089 2.884 5.052 0.785 2.662 0.785 3.209 0.085 5.888-0.853 3.294-0.393 4.727 1.417 4.386 1.826-0.341 2.867-3.328 2.645-7.612-0.273-5.325-2.799-10.155-6.468-12.425-3.942-2.441-11.196-0.836-13.449 2.97-1.195 2.031-1.485 2.082-4.267 0.802-3.021-1.399-5.001-3.738-5.342-6.332-0.393-2.935-1.468-3.021-6.519-0.461-5.308 2.679-7.902 4.625-9.097 6.844-2.031 3.789 0.939 4.915 3.738 1.434 0.973-1.195 2.97-2.714 4.796-3.652l3.157-1.587 0.785 1.195c1.894 2.867 3.396 4.147 6.963 5.905l3.806 1.877 0.017 2.611c0 1.536 0.495 3.806 1.195 5.495l1.195 2.884-4.147 0.341c-4.676 0.393-9.301 1.348-13.995 2.901-2.731 0.905-3.209 1.229-3.209 2.27 0 1.929 1.348 2.304 4.489 1.212 4.318-1.485 10.223-2.458 15.514-2.543 4.301-0.068 5.069 0.068 7.134 1.229 2.406 1.348 10.172 3.84 12.151 3.891 0.819 0.034 1.246-0.341 1.468-1.28zM601.6 692.582c3.43-1.792 5.035-5.683 3.379-8.226-1.57-2.389-6.042-3.482-9.25-2.27-1.075 0.41-1.314 0.802-1.178 1.929 0.154 1.348 0.307 1.417 3.499 1.673 2.935 0.222 3.345 0.393 3.482 1.382 0.119 0.819-0.256 1.348-1.382 1.929-0.853 0.444-1.963 0.802-2.492 0.802s-1.229 0.273-1.553 0.614c-0.802 0.802-0.785 2.816 0.017 3.157 0.887 0.341 3.925-0.188 5.478-0.99zM627.61 687.189c0.171-2.236-1.485-5.12-2.97-5.12-1.553 0-1.758 1.246-0.768 4.403 0.802 2.56 1.007 2.816 2.236 2.662 1.161-0.119 1.382-0.427 1.502-1.946zM364.51 678.229v-36.608h30.72c30.379 0 30.72 0.017 30.72 1.024s-0.341 1.024-28.894 1.024c-25.583 0-28.996 0.085-29.696 0.802-0.717 0.717-0.802 4.642-0.802 35.584 0 34.441-0.017 34.782-1.024 34.782s-1.024-0.324-1.024-36.608zM437.231 678.229v-36.608h56.081c55.74 0 56.081 0 56.081 1.024s-0.341 1.024-54.255 1.024c-48.64 0-54.323 0.085-55.057 0.802-0.717 0.717-0.802 4.642-0.802 35.584 0 34.441-0.017 34.782-1.024 34.782-1.024 0.017-1.024-0.324-1.024-36.608zM374.75 680.533v-27.648h21.504c21.043 0 21.504 0.017 21.504 1.007s-0.495 1.007-19.934 1.161c-10.957 0.085-20.122 0.341-20.361 0.58s-0.495 12.169-0.563 26.505c-0.137 25.566-0.154 26.078-1.161 26.078-0.973-0.017-0.99-0.495-0.99-27.682zM446.959 680.533v-27.648h47.104c46.78 0 47.121 0 47.121 1.024s-0.341 1.024-44.851 1.024c-29.935 0-45.175 0.171-45.841 0.529-0.956 0.512-0.99 1.348-0.99 26.624v26.095h-2.56l0.017-27.648zM524.288 689.852c0-0.614 0.973-1.348 1.331-0.99 0.137 0.137-0.119 0.529-0.546 0.887-0.495 0.393-0.785 0.444-0.785 0.102zM554.359 626.381c-1.041-1.161-9.165-34.953-9.216-38.349-0.034-2.884 2.219-6.69 4.523-7.663 0.956-0.393 2.679-0.717 3.857-0.717 1.758 0 2.423 0.307 3.738 1.69 1.963 2.082 6.724 11.554 9.455 18.79 2.253 5.956 8.277 24.474 8.277 25.412 0 1.007-2.031 1.297-11.008 1.587-8.209 0.256-8.772 0.205-9.626-0.751zM534.886 621.756c-1.468-1.348-3.721-3.294-5.035-4.335-2.133-1.707-2.406-2.15-2.714-4.591-0.188-1.485-0.358-6.758-0.375-11.708-0.051-10.513 0.324-11.861 3.55-12.732 2.645-0.717 5.632 0.137 6.246 1.758 0.256 0.666 1.058 5.086 1.775 9.83 0.717 4.727 1.826 12.117 2.475 16.418l1.178 7.817h-2.236c-1.929 0-2.543-0.307-4.864-2.458zM515.942 615.492c-0.785-0.614-2.014-2.304-2.748-3.755-1.638-3.26-2.628-4.437-3.789-4.437-0.666 0-0.973-0.597-1.229-2.287-0.427-2.884-0.427-11.025 0-12.339 0.99-3.038 1.485-3.772 2.816-4.335 2.56-1.058 3.977-0.29 5.461 2.935 1.57 3.447 1.946 8.67 1.314 18.773l-0.41 6.571-1.417-1.126zM494.148 605.218c-1.229-0.239-2.543-0.7-2.953-1.024-0.785-0.649-0.939-4.881-0.375-9.574 0.273-2.304 0.546-2.833 1.758-3.465 1.98-1.024 3.669-0.922 5.222 0.29 2.185 1.707 2.628 3.994 1.86 9.523-0.734 5.393-0.512 5.239-5.513 4.25zM519.202 569.788c-2.509-0.905-2.458-1.621 0.188-2.645 7.39-2.816 4.745-10.445-4.113-11.844-2.953-0.461-3.925 0.58-3.516 3.789 0.375 2.833-0.512 8.209-1.536 9.216-0.546 0.546-1.434 0.631-3.584 0.358-2.594-0.324-2.867-0.478-2.867-1.604 0-0.956 0.273-1.246 1.161-1.246 1.604 0 3.26-1.263 3.635-2.782 0.649-2.611-2.321-8.738-5.154-10.598-2.645-1.741-6.076-0.751-7.697 2.253l-0.905 1.655-0.154-1.536c-0.29-3.021-0.666-3.84-2.15-4.608-1.929-0.99-4.779-0.99-6.707 0.017-1.365 0.717-1.553 0.7-1.826-0.017-0.171-0.444-0.205-2.167-0.085-3.857 0.256-3.601 1.417-5.137 4.847-6.451 3.174-1.212 9.591-0.717 17.579 1.382l6.4 1.673 32.017 0.444 0.017 4.437c0.017 6.246 0.819 13.193 1.963 16.845l0.973 3.106-5.513 0.358c-5.7 0.375-7.305 0.171-8.806-1.143-0.819-0.717-0.819-0.887 0.171-2.833 1.28-2.492 0.819-3.942-1.724-5.495-3.84-2.338-5.513-0.768-5.513 5.171 0 3.004-0.205 4.181-0.887 4.983-1.109 1.331-3.942 1.775-6.212 0.973zM487.407 568.747c-1.57-0.785-1.997-2.731-0.666-3.089 0.512-0.137 1.826-0.41 2.935-0.597 1.297-0.222 2.543-0.905 3.516-1.963l1.519-1.621-0.375 2.304c-0.461 2.85-1.468 4.506-3.157 5.137-1.655 0.631-2.219 0.614-3.772-0.171zM534.016 532.429c-6.434-6.878-8.892-7.868-13.824-5.581-2.458 1.143-7.373 1.485-7.953 0.546-0.478-0.768 3.686-6.076 5.205-6.656 1.98-0.751 8.090-0.563 10.786 0.324 1.348 0.444 4.489 1.741 6.963 2.867l4.523 2.065 4.506-1.178c4.437-1.161 4.54-1.161 6.929-0.239 4.284 1.638 7.458 5.188 7.441 8.329-0.017 2.731-0.495 2.935-4.489 1.911l-3.584-0.922-5.427 1.382c-2.987 0.751-5.837 1.348-6.332 1.331-0.495-0.051-2.628-1.929-4.745-4.181zM503.296 495.616c-2.236-0.427-3.84-1.69-3.277-2.577 0.154-0.239 1.178-0.444 2.287-0.444 2.236 0 4.062-1.365 4.062-3.055s-2.372-6.485-3.635-7.373c-1.98-1.382-4.762-1.075-6.861 0.768-1.758 1.553-1.86 1.57-2.56 0.631-0.41-0.529-0.734-1.143-0.751-1.365-0.017-0.597-4.71-3.447-5.683-3.447-0.478 0-1.143 0.341-1.502 0.768-0.734 0.887-2.628 1.007-3.413 0.222-0.393-0.393-0.375-1.229 0.051-2.953l0.614-2.389 3.294-0.324c1.809-0.171 9.182-0.205 16.367-0.051 8.96 0.188 14.66 0.068 18.176-0.358 5.205-0.649 8.448-1.621 8.448-2.526 0-1.058 2.662-3.584 4.864-4.625 1.263-0.597 2.304-1.417 2.304-1.809 0-1.331 2.611-2.918 4.574-2.748 3.243 0.273 5.495 5.188 5.035 10.991-0.358 4.574-1.638 6.827-4.642 8.26-2.782 1.331-3.584 2.731-4.181 7.27-0.205 1.553-0.734 3.226-1.178 3.721-1.741 1.963-7.68 2.833-17.203 2.543l-4.028-0.119 1.826-2.014c2.185-2.423 2.748-4.847 1.86-8.021-0.853-3.021-2.423-4.113-4.983-3.482-2.731 0.683-3.703 2.714-4.147 8.636-0.188 2.679-0.58 5.069-0.853 5.325-0.887 0.819-2.492 1.007-4.864 0.546zM490.308 495.326c-0.597-0.597-0.375-1.075 0.631-1.331 1.212-0.324 2.355 0.341 1.877 1.092-0.375 0.631-1.963 0.785-2.509 0.239zM519.68 445.116c-0.427-0.154-1.348-0.495-2.048-0.768-1.024-0.375-1.126-0.563-0.512-0.887 1.604-0.887 6.707-1.57 15.479-2.082 12.527-0.734 22.135-2.765 39.834-8.465 8.363-2.697 13.244-4.796 17.698-7.663 5.854-3.755 7.987-4.881 10.291-5.393 1.28-0.29 3.635-1.451 5.257-2.594 3.021-2.133 16.213-7.117 18.825-7.117 1.946 0 3.26 0.922 4.079 2.884 1.536 3.703-1.314 8.294-6.673 10.735-4.471 2.031-24.747 7.748-47.155 13.278-22.511 5.547-29.73 7.083-37.376 7.936-4.915 0.529-16.401 0.614-17.698 0.137zM465.135 441.617c-2.526-0.427-10.138-1.69-16.896-2.799-25.958-4.301-37.803-8.772-52.599-19.866l-2.406-1.809 0.956-1.826c0.529-1.007 1.877-3.789 3.004-6.178 2.287-4.881 4.284-7.168 5.53-6.383 1.041 0.666 1.86 2.167 4.267 7.919 2.628 6.281 5.342 8.943 13.158 12.937 9.54 4.881 17.903 7.731 34.321 11.674 5.786 1.399 7.885 1.638 17.579 1.997 6.059 0.222 13.431 0.785 16.384 1.263 5.257 0.836 8.226 1.997 7.356 2.867-0.239 0.239-6.195 0.563-13.244 0.7-10.001 0.205-13.807 0.102-17.408-0.495zM640.154 411.802c-1.143-0.768-2.628-2.099-3.328-2.953-1.263-1.536-7.561-11.759-7.561-12.271 0-0.154 0.41-0.256 0.887-0.239 0.495 0.017 1.587 0.99 2.441 2.167 3.209 4.42 7.919 3.567 7.919-1.434v-1.229l1.809 1.126c0.99 0.614 2.543 1.587 3.447 2.167 4.659 2.953 5.188 8.397 1.229 12.663-1.724 1.877-4.096 1.877-6.844 0zM378.214 411.153c-4.625-1.877-8.073-4.779-8.073-6.793 0-0.393 0.461-1.126 1.041-1.638 0.563-0.512 1.399-2.219 1.86-3.789 1.058-3.703 2.509-6.537 3.635-7.117 0.495-0.256 1.809-0.614 2.935-0.802s4.745-1.263 8.055-2.389c6.793-2.321 8.073-2.219 8.073 0.631 0 2.492-1.417 4.864-5.734 9.523-4.42 4.762-5.769 6.997-6.605 10.889-0.631 2.935-1.212 3.106-5.188 1.485zM518.912 409.702c-3.43-1.57-4.096-2.782-5.939-10.803-1.451-6.349-2.492-7.424-9.284-9.694-5.12-1.707-6.827-2.714-3.857-2.304 4.727 0.649 22.306 1.758 28.058 1.758h6.554l0.375 7.407c0.358 7.151 0.324 7.492-0.836 9.865-1.724 3.482-4.147 4.727-9.148 4.727-2.679-0.017-4.523-0.324-5.922-0.956zM662.801 400.947c-1.877-0.785-5.257-4.813-9.694-11.537-4.762-7.202-4.83-8.124-0.478-5.564 2.133 1.246 3.14 1.468 8.602 1.775 6.11 0.358 8.704 1.007 9.182 2.27 0.137 0.358-0.324 2.236-1.024 4.164s-1.638 4.54-2.082 5.803c-1.28 3.652-1.997 4.13-4.506 3.089zM356.13 394.035c-2.202-0.802-5.137-3.379-6.246-5.513-0.973-1.86-0.939-2.133 0.614-3.959 0.87-1.024 1.331-2.202 1.331-3.345 0-1.28 0.324-1.98 1.178-2.543 0.649-0.427 1.451-1.587 1.775-2.594 0.905-2.731 3.345-3.669 5.188-2.014 0.717 0.649 0.853 1.331 0.614 3.226-0.358 3.072 0.563 4.147 3.584 4.13 2.85 0 5.103-1.468 9.284-5.99 3.311-3.584 4.437-4.113 5.103-2.389 0.358 0.956-7.953 14.421-10.564 17.135-3.533 3.686-8.209 5.188-11.861 3.857zM523.52 379.068c-0.563-0.119-2.406-0.666-4.096-1.212s-4.898-1.331-7.117-1.758-4.164-0.887-4.301-1.024c-0.358-0.358 2.833-1.655 5.871-2.389 1.553-0.375 7.765-0.631 16.555-0.7l14.080-0.085 7.236-2.116c12.595-3.686 25.276-9.25 36.164-15.889 3.311-2.014 6.554-3.806 7.202-3.959 1.997-0.495 8.004 6.639 6.69 7.953-0.87 0.87-19.285 9.045-29.184 12.954-18.603 7.356-24.166 8.585-38.571 8.482-5.222 0-9.967-0.119-10.53-0.256zM333.909 372.617c-0.631-0.939-1.161-2.304-1.161-3.038 0-1.382-0.802-1.946-2.816-1.946-1.109 0-3.84-2.543-3.84-3.584 0-1.024 1.741-2.048 3.499-2.048 1.041 0 2.697-0.41 3.669-0.887 1.451-0.734 1.894-1.331 2.338-3.191 0.427-1.792 0.853-2.406 1.929-2.799 1.246-0.444 1.604-0.256 3.55 1.792 1.195 1.263 3.038 2.918 4.079 3.703 2.85 2.133 2.645 3.618-0.785 5.239-2.287 1.075-3.004 1.792-4.745 4.727-2.458 4.215-3.891 4.727-5.717 2.031zM481.775 373.709c-13.824-1.621-25.395-4.233-34.492-7.817-6.946-2.731-18.057-7.799-19.61-8.943-1.724-1.263-2.338-2.918-1.417-3.703 1.502-1.246 3.567-0.649 8.704 2.509 13.636 8.38 31.317 14.575 47.053 16.486 2.526 0.307 5.188 0.683 5.888 0.853 1.195 0.273 1.212 0.324 0.256 0.717-1.195 0.495-1.399 0.495-6.383-0.102zM693.726 361.455c-3.157-3.277-4.881-5.444-4.591-5.751s1.741-0.239 3.806 0.188c2.987 0.597 3.465 0.563 4.676-0.222 1.843-1.212 2.304-2.731 1.758-5.717-0.58-3.14-0.341-3.806 1.417-3.806 3.618 0 9.404 4.71 9.404 7.646 0 1.195-0.631 2.048-3.106 4.215-1.707 1.502-3.857 3.994-4.762 5.53-0.905 1.553-2.082 2.901-2.577 2.987-0.666 0.137-2.594-1.502-6.025-5.069zM414.071 351.898c-1.434-1.638-2.526-4.318-2.236-5.478 0.154-0.631 0.87-1.399 1.57-1.724 0.785-0.358 1.297-1.007 1.297-1.673 0-1.28 5.035-7.185 7.885-9.267 2.338-1.707 3.686-1.946 2.918-0.529-0.273 0.512-1.399 3.328-2.509 6.281-3.14 8.346-5.871 13.278-7.373 13.278-0.427 0-1.126-0.393-1.553-0.887zM610.799 351.369c-1.212-1.075-1.604-1.877-1.638-3.328-0.085-2.748 0.444-3.021 4.045-2.048 3.362 0.905 4.813 0.683 4.813-0.683 0-0.478 0.41-1.314 0.887-1.86 0.666-0.734 0.87-1.758 0.802-3.874l-0.085-2.884 1.246 1.536c2.731 3.345 3.977 7.612 2.97 10.223-0.444 1.143-2.884 2.321-7.1 3.43-4.506 1.126-4.062 1.161-5.939-0.512zM313.651 350.327c-0.751-0.785-1.382-1.69-1.382-2.014 0-0.307 2.492-1.826 5.53-3.362s6.315-3.294 7.305-3.874c2.304-1.417 2.543-1.365 2.048 0.358-1.007 3.533-3.209 6.195-7.441 8.994-2.645 1.741-4.335 1.707-6.059-0.102zM518.007 348.262c-2.031-0.802-5.478-4.932-8.055-9.66-3.721-6.793-6.315-10.462-8.841-12.493-1.997-1.604-5.939-3.038-8.397-3.038-3.021 0-2.833-0.751 0.324-1.348 4.932-0.939 10.496-0.819 19.917 0.41 7.1 0.939 9.097 1.024 12.561 0.58 2.27-0.29 4.523-0.7 5.001-0.905 0.7-0.29 0.939 0.034 1.28 1.604 0.631 3.021 0.461 15.497-0.256 17.937-1.314 4.454-5.274 7.322-10.086 7.27-1.399 0.017-2.953-0.154-3.447-0.358zM713.626 343.671c-1.263-1.758-2.594-2.85-4.608-3.806-2.031-0.956-3.294-2.014-4.454-3.686-0.887-1.28-1.468-2.543-1.314-2.799 1.075-1.724 8.414-1.929 15.121-0.393 2.458 0.563 2.833 0.802 2.97 1.98 0.119 1.007-0.273 1.707-1.638 2.816-1.348 1.109-1.929 2.116-2.355 4.028-1.143 5.274-1.246 5.308-3.721 1.86zM396.51 339.763c-2.287-2.287-1.792-3.43 4.011-9.301 2.901-2.935 5.632-5.342 6.042-5.342s1.178 0.307 1.69 0.683c0.887 0.649 0.87 0.768-0.222 2.953-0.631 1.246-1.809 3.021-2.611 3.959-0.802 0.922-1.468 2.014-1.468 2.423 0 1.024-2.935 4.25-4.693 5.171-1.382 0.683-1.553 0.666-2.748-0.546zM304.896 336.691c-1.109-0.41-2.594-1.314-3.311-2.031-1.229-1.229-1.263-1.365-0.444-2.185 0.614-0.614 2.099-0.956 5.154-1.161 3.977-0.273 4.506-0.444 7.305-2.389 2.782-1.946 6.946-4.284 7.612-4.284 0.87 0-0.137 1.638-3.362 5.461-5.444 6.468-8.704 8.124-12.954 6.588zM630.255 331.025c-2.27-2.082-4.079-3.328-4.813-3.328-1.246 0-2.953-1.57-2.065-1.894 0.29-0.102 1.553-0.7 2.816-1.331 2.202-1.075 2.304-1.229 2.304-3.379 0-2.867 1.178-3.84 2.85-2.338 1.382 1.246 4.062 6.485 4.062 7.936 0 0.58 0.58 1.911 1.28 2.953 1.997 2.935 1.468 4.727-1.382 4.727-1.041-0.017-2.389-0.905-5.052-3.345zM648.209 318.976c-0.99-0.853-3.055-2.372-4.608-3.396-3.482-2.27-5.734-4.796-5.035-5.649 0.273-0.324 1.655-0.853 3.072-1.161s3.157-1.007 3.874-1.57 1.57-1.024 1.911-1.024 1.126-0.563 1.775-1.246c0.973-1.041 1.143-1.69 0.99-3.977l-0.171-2.731 2.56-0.154c2.167-0.119 2.953 0.102 5.001 1.451 3.772 2.492 6.007 5.393 6.007 7.782 0 2.935-0.751 3.891-4.335 5.495-3.14 1.417-3.669 1.894-6.076 5.649-1.485 2.338-2.731 2.458-4.966 0.529zM381.082 319.249c-0.853-2.236 1.553-6.4 3.703-6.4 0.375 0 0.905-0.427 1.195-0.939 0.512-0.956 5.99-3.004 6.554-2.441 0.666 0.666-1.792 4.796-4.54 7.612-2.475 2.526-3.157 2.953-4.762 2.953-1.178-0.017-1.963-0.29-2.15-0.785zM717.363 313.839c-3.106-1.417-4.096-2.406-4.096-4.113 0-1.997 1.297-2.526 5.222-2.167 4.847 0.461 6.929-0.785 6.605-3.925-0.051-0.427-1.502-2.082-3.26-3.686-2.611-2.389-3.021-2.97-2.287-3.26 2.526-0.973 6.81 1.246 9.318 4.813 1.331 1.894 1.553 2.662 1.553 5.461 0 2.918-0.154 3.413-1.536 4.864-0.836 0.887-2.15 1.946-2.918 2.338-1.98 1.041-5.922 0.887-8.602-0.324zM507.392 312.644c-1.553-0.341-3.567-1.024-4.471-1.502-1.604-0.853-3.055-2.731-2.526-3.26 0.154-0.154 2.645 0.051 5.547 0.444 4.659 0.614 6.059 0.597 11.93-0.137 16.145-2.048 29.099-6.485 40.977-13.995 3.669-2.321 6.946-4.369 7.287-4.574 1.041-0.597 3.533 1.075 4.42 2.935 1.263 2.662 1.058 4.284-0.734 5.922-2.372 2.167-8.755 5.666-13.824 7.561-6.076 2.287-18.944 5.564-25.634 6.537-6.417 0.922-18.927 0.973-22.972 0.068zM474.999 307.951c-5.803-0.905-13.5-3.499-20.873-7.049-10.547-5.069-14.848-9.199-14.848-14.251 0-2.679 0.836-5.052 1.792-5.052 0.341 0 2.031 2.167 3.755 4.813 5.888 9.045 9.882 11.452 29.491 17.715 3.635 1.161 7.68 2.662 8.96 3.345l2.338 1.229-3.072-0.034c-1.69 0-5.086-0.324-7.543-0.717zM289.604 307.678c-2.611-1.007-1.758-2.167 3.43-4.727 2.662-1.314 4.983-2.389 5.154-2.389s3.072-1.382 6.434-3.072c6.4-3.209 7.834-3.601 8.346-2.27 0.461 1.195-0.29 2.27-3.994 5.734-4.557 4.267-9.847 6.861-14.49 7.1-1.894 0.085-4.096-0.085-4.881-0.375zM358.383 295.714c-0.87-1.041-0.273-1.741 2.423-2.901 1.28-0.546 2.594-1.365 2.918-1.809 0.717-0.973 3.84-0.495 3.84 0.58 0 0.887-2.867 3.294-4.983 4.181-2.099 0.887-3.43 0.87-4.198-0.051zM664.047 292.574c-0.375-0.444-2.236-1.604-4.164-2.56-1.911-0.973-3.482-2.082-3.482-2.475s0.819-1.229 1.809-1.843c0.99-0.614 2.15-1.792 2.577-2.594 0.427-0.819 0.939-1.485 1.143-1.468 0.205 0 1.263 0.683 2.355 1.519 1.092 0.819 3.123 1.877 4.523 2.338 2.953 0.99 3.413 1.758 2.185 3.686-2.492 3.925-5.342 5.325-6.946 3.396zM732.023 292.164c-2.304-0.853-4.437-2.714-4.437-3.857 0-0.444 1.263-1.775 2.799-2.97 1.587-1.229 2.935-2.731 3.123-3.465 0.444-1.758-0.085-4.267-1.314-6.281-0.922-1.519-1.229-1.673-3.584-1.673-1.946 0-2.56-0.188-2.56-0.768 0-1.178 6.451-1.041 9.762 0.222 2.987 1.143 7.765 4.574 9.028 6.502 1.161 1.775 1.161 7.031-0.017 9.267-0.478 0.905-1.604 2.031-2.509 2.509-2.236 1.161-7.799 1.434-10.291 0.512zM581.069 287.095c-1.963-1.314-5.069-6.127-5.069-7.851 0-1.382 0.87-1.741 4.198-1.741 3.209 0 5.103-1.109 8.329-4.864 2.048-2.389 2.662-2.816 4.147-2.816 1.365 0 2.185 0.444 3.738 2.048 3.157 3.243 3.004 5.188-0.768 10.325-1.382 1.877-2.748 2.987-5.359 4.284-4.181 2.133-6.707 2.287-9.216 0.614zM289.109 282.402c-0.529-0.734-2.202-1.655-4.198-2.321-4.267-1.417-4.762-2.526-2.133-4.915 1.024-0.939 1.843-2.15 1.843-2.714s0.614-1.434 1.348-1.946c4.983-3.396 5.649-6.076 2.287-9.438l-1.98-1.997h1.399c1.69 0 3.84 1.587 4.898 3.635 0.427 0.819 1.092 1.485 1.485 1.485 0.785 0 2.031 2.97 2.85 6.793 0.87 4.079-0.7 9.097-3.447 11.025-2.338 1.655-3.362 1.741-4.352 0.393zM351.317 279.962c-1.946-0.939-1.314-1.724 2.918-3.652 4.642-2.133 6.161-2.338 6.161-0.87 0 1.314-1.126 2.372-4.13 3.891-2.731 1.382-3.243 1.451-4.949 0.631zM670.43 276.548c-1.161-0.529-4.25-1.587-6.878-2.338s-5.222-1.69-5.786-2.082c-0.973-0.683-0.956-0.717 0.393-1.058 0.768-0.188 2.526-0.222 3.908-0.051 2.867 0.341 14.985 4.949 15.036 5.717 0.085 0.956-4.471 0.819-6.673-0.188zM509.44 275.661c-3.447-0.41-12.049-2.338-12.646-2.833-1.007-0.819-1.382-3.533-0.597-4.301 0.375-0.375 3.908-2.065 7.834-3.755 5.291-2.27 7.322-2.935 7.799-2.526 1.604 1.331 2.065 0.137 2.321-6.212 0.307-7.492 0.905-8.687 4.693-9.438 1.946-0.375 2.56-0.324 3.191 0.324 0.512 0.512 1.246 3.789 2.116 9.387 1.451 9.455 1.28 12.544-0.887 15.565-2.048 2.884-7.936 4.489-13.824 3.789zM432.111 272.265c0-1.382 0.563-2.185 3.345-4.813 3.959-3.738 5.871-4.693 7.697-3.857 0.905 0.41 1.263 0.99 1.263 2.014 0 2.185-1.297 3.601-4.864 5.274-1.775 0.836-3.516 1.86-3.857 2.287-0.341 0.41-1.297 0.751-2.099 0.751-1.331 0-1.485-0.171-1.485-1.655zM604.774 269.961c-0.58-0.495-1.399-1.758-1.826-2.816-0.717-1.758-0.7-1.963 0.102-2.389 2.867-1.536 9.011-4.659 9.148-4.659 0.085 0 0.171 0.819 0.171 1.809 0 3.089-3.669 8.943-5.615 8.943-0.512 0-1.399-0.393-1.98-0.887zM354.099 265.899c-0.597-0.597-0.358-2.219 0.324-2.219 1.092 0 2.594 1.331 2.202 1.963-0.41 0.649-1.98 0.802-2.526 0.256zM740.13 265.199c-1.126-0.546-3.686-1.451-5.7-2.014-3.499-0.99-6.332-2.628-6.332-3.635 0-0.256 2.133-0.478 4.745-0.478 8.021 0 9.899-1.092 12.425-7.168 1.792-4.335 2.543-5.12 4.847-5.12 4.164 0 4.062 1.929-0.461 8.926-1.963 3.021-3.823 6.349-4.164 7.373-1.143 3.482-1.877 3.772-5.359 2.116zM672.41 262.417c-2.133-0.939-4.233-3.038-4.215-4.215 0.017-0.529 1.161-1.69 2.662-2.714 4.659-3.157 6.042-6.605 4.181-10.513-1.041-2.185-2.953-2.867-6.468-2.321-1.485 0.239-3.174 0.239-3.772 0.017-1.075-0.41-2.082-2.543-1.178-2.543 0.256 0 0.461 0.324 0.461 0.717 0 0.836 1.143 1.382 1.894 0.905 0.29-0.188 0.683-0.853 0.887-1.485 0.427-1.382 1.741-1.451 7.509-0.427 3.823 0.683 7.492 2.048 9.284 3.43 0.819 0.649 0.836 0.922 0.171 3.516-0.393 1.553-1.212 4.898-1.792 7.424-1.399 6.11-3.123 8.653-5.956 8.823-1.092 0.068-2.748-0.205-3.669-0.614zM419.311 262.212c0-1.007 1.434-4.13 2.543-5.547 0.563-0.717 1.041-1.929 1.041-2.662 0-1.843 1.707-4.471 3.703-5.717 2.202-1.382 5.82-1.092 7.151 0.546 1.536 1.894 1.161 3.84-1.246 6.451-2.389 2.594-4.42 3.789-8.55 5.001-1.519 0.461-3.191 1.212-3.721 1.673-0.58 0.546-0.922 0.631-0.922 0.256zM609.417 243.319c-2.321-1.041-4.233-2.185-4.233-2.526 0-0.819 2.833-2.935 5.376-3.977 3.106-1.28 4.267-2.697 5.427-6.571 0.956-3.191 1.161-3.516 2.167-3.226 0.614 0.171 2.219 0.563 3.55 0.853 2.287 0.512 2.441 0.649 2.441 2.202 0 3.908-2.901 10.786-5.683 13.517-2.202 2.167-3.721 2.116-9.045-0.273zM509.952 239.019c-2.918-0.358-4.062-0.717-4.762-1.553-1.519-1.809-0.375-2.185 7.424-2.458l7.236-0.256 1.024-2.492c1.041-2.526 1.024-2.577-0.427-6.076-0.563-1.331 1.075-1.741 2.372-0.58 1.826 1.655 3.004 4.574 3.004 7.492 0 2.338-0.205 2.953-1.451 4.13-2.509 2.406-5.888 2.816-14.421 1.792zM405.692 235.264c-0.188-0.99-0.205-2.133-0.051-2.543 0.341-0.887 6.127-2.662 10.069-3.072 3.311-0.341 10.752 0.427 12.373 1.297 1.126 0.597 1.126 0.597-0.358 1.382-0.99 0.512-3.806 0.887-8.414 1.126-5.632 0.29-7.322 0.563-9.062 1.451-1.178 0.614-2.287 1.331-2.458 1.621-0.7 1.126-1.775 0.461-2.099-1.263zM347.546 230.383l-1.212-1.041 1.28-0.887c2.099-1.451 3.089-2.782 4.267-5.751 0.939-2.355 1.348-2.85 2.526-2.987 1.263-0.154 1.553 0.137 2.679 2.56 1.246 2.662 1.587 5.154 0.956 6.793-0.905 2.406-8.209 3.294-10.496 1.314zM752.418 230.554c-0.563-0.137-3.55-1.007-6.656-1.929s-6.895-1.86-8.448-2.065c-3.14-0.427-4.096-0.973-4.096-2.355 0-1.434 3.106-2.048 7.424-1.485 1.98 0.256 5.274 0.478 7.322 0.495 3.55 0.017 3.823 0.102 5.274 1.69 3.106 3.362 2.662 6.485-0.819 5.649zM278.221 229.069c-0.853-0.375-1.997-0.683-2.56-0.7s-1.348-0.239-1.758-0.495c-1.126-0.717-0.034-1.758 5.7-5.461 5.649-3.669 6.11-4.301 7.612-10.889 1.178-5.137 2.082-6.844 3.072-5.854 0.905 0.887 1.314 15.77 0.495 18.227-0.341 1.024-1.297 2.441-2.133 3.14-2.441 2.065-7.936 3.123-10.428 2.031zM679.117 227.601c-3.635-1.587-3.567-3.908 0.341-10.001 3.021-4.693 3.072-4.864 3.072-8.414 0-5.103 0.734-7.458 2.287-7.458 3.379 0 6.878 8.175 6.161 14.37-0.41 3.499-2.526 8.243-4.727 10.598-1.246 1.331-1.963 1.655-3.533 1.638-1.092-0.017-2.714-0.341-3.601-0.734zM407.023 221.338c0.017-0.768 8.346-4.301 8.892-3.772 0.939 0.939-1.212 2.509-4.215 3.106-1.587 0.307-3.294 0.683-3.789 0.819-0.495 0.154-0.887 0.085-0.887-0.154zM621.073 216.73c-1.826-0.734-4.71-1.724-6.4-2.202s-3.072-1.178-3.072-1.536c0-0.819 7.305-5.069 8.772-5.103 1.707-0.034 3.755 1.911 5.035 4.83 0.649 1.485 1.451 2.85 1.758 3.038s0.563 0.802 0.563 1.348c0 1.417-2.492 1.28-6.656-0.375zM753.579 214.545c-1.126-0.853-3.669-1.894-6.144-2.543-2.321-0.614-4.898-1.365-5.7-1.69-1.843-0.717-4.42-2.85-4.403-3.635 0.017-0.836 11.759-4.557 13.124-4.147 1.758 0.512 3.004-0.546 4.847-4.113 0.956-1.843 1.997-3.345 2.338-3.345 1.638 0 1.519 13.773-0.154 18.142-0.529 1.382-1.195 2.577-1.485 2.645-0.273 0.068-1.365-0.529-2.423-1.314zM622.865 201.165c-3.379-1.109-6.485-2.372-6.912-2.799-0.7-0.7-0.119-0.734 5.444-0.427l6.212 0.358 1.212-2.116c1.382-2.423 2.321-2.697 2.799-0.802 0.683 2.714-0.631 7.936-1.997 7.868-0.341-0.051-3.379-0.973-6.758-2.082zM333.585 200.448c-1.092-0.393-2.219-0.939-2.509-1.229-0.853-0.853-0.051-1.963 1.69-2.304 2.714-0.546 21.299-0.375 22.835 0.205l1.399 0.529-1.126 1.143c-1.024 1.024-1.69 1.143-6.878 1.195-3.157 0.034-7.356 0.324-9.335 0.631-4.284 0.683-3.652 0.7-6.076-0.171zM396.442 198.212c-3.959-2.509-2.628-2.935 10.24-3.277 10.121-0.273 13.636 0.085 13.636 1.348 0 1.348-2.492 1.997-8.038 2.099-3.038 0.051-7.492 0.273-9.882 0.478-3.84 0.324-4.54 0.256-5.956-0.649zM512.256 194.799c-1.126-0.375-3.209-0.7-4.608-0.717-3.345-0.051-6.025-0.819-7.151-2.048-0.87-0.956-0.819-1.007 1.212-1.553 6.298-1.69 10.803-5.205 13.022-10.189 2.338-5.222 2.867-13.21 1.297-19.78-0.273-1.126-0.717-6.298-0.973-11.486-0.529-10.462-1.229-13.705-3.55-16.486-2.031-2.441-5.069-3.806-11.964-5.376-9.199-2.082-9.182-2.662 0.137-3.311 7.543-0.529 8.533-0.751 10.854-2.577 1.041-0.802 2.423-1.724 3.072-2.014 0.666-0.307 1.655-1.263 2.219-2.15s1.314-2.082 1.69-2.662c0.461-0.734 0.563-2.099 0.341-4.574l-0.307-3.516 1.451 0.341c7.509 1.792 13.602 8.994 13.687 16.179 0.051 4.062-1.451 7.117-5.871 11.947-3.499 3.823-4.181 5.103-5.871 10.906-2.492 8.585-2.321 12.1 1.092 23.979 0.973 3.362 1.894 7.748 2.065 9.728 0.512 5.99-1.109 11.674-4.198 14.763-1.587 1.57-4.079 1.758-7.646 0.597zM268.749 190.071c-0.99-0.495-2.082-1.519-2.458-2.287-0.614-1.314-0.529-1.519 1.382-3.43 3.55-3.55 4.574-6.246 6.451-16.913 0.717-4.079 1.587-7.765 1.946-8.192 1.604-1.946 4.386-7.134 4.949-9.199 0.734-2.731 0.375-4.898-1.485-8.994-1.911-4.215-3.618-6.076-7.748-8.482-3.618-2.116-4.642-3.55-3.516-4.915 0.358-0.427 2.731-1.758 5.291-2.953 2.97-1.382 5.7-3.157 7.595-4.881 4.54-4.164 5.359-3.191 3.362 3.925-1.365 4.83-1.519 11.827-0.478 20.873 0.495 4.215 0.597 8.397 0.375 13.312-0.427 9.114-2.679 30.993-3.226 31.505-0.529 0.495-6.588 1.519-8.909 1.519-0.956 0-2.543-0.393-3.533-0.887zM342.716 189.713c-1.69-1.69-1.604-3.089 0.614-9.745 1.69-5.052 1.86-6.144 1.792-10.598-0.102-6.929-1.212-9.677-5.837-14.558-3.584-3.772-3.584-3.789-4.011-7.492-0.239-2.048-0.444-5.103-0.461-6.793-0.034-5.103-0.734-6.639-4.659-10.377-3.738-3.55-4.215-4.745-2.987-7.441 0.546-1.178 0.836-1.246 7.049-1.57 3.567-0.188 8.158-0.461 10.223-0.631 4.369-0.358 8.311 0.495 8.277 1.792 0 0.461-0.222 1.758-0.478 2.884s-0.853 6.315-1.331 11.52c-0.905 9.967-0.802 17.323 0.358 26.027 0.512 3.823 0.512 6.502-0.017 13.517-0.7 9.284-0.973 10.359-3.345 13.039-1.809 2.014-3.447 2.167-5.188 0.427zM673.655 190.635c-0.734-0.734-0.307-2.236 0.853-3.004 3.499-2.304 5.001-13.943 2.833-22.067-0.597-2.236-1.195-4.523-1.314-5.086-0.188-0.802 0.188-1.246 1.621-1.929 4.676-2.236 6.895-14.848 3.823-21.794-2.099-4.762-5.598-7.151-11.759-8.021-8.26-1.178-7.373-3.021 2.116-4.403 3.379-0.495 7.748-1.382 9.711-1.98 3.413-1.041 3.669-1.229 5.41-4.011 2.628-4.164 3.721-5.222 5.359-5.222 4.335 0 5.222 7.817 1.655 14.455-4.693 8.721-4.318 6.827-4.437 23.023-0.085 11.725 0.085 15.957 0.887 22.17 1.178 9.199 1.195 10.82 0.137 12.885-1.263 2.441-6.093 4.233-13.431 5.001-1.707 0.188-3.26 0.188-3.465-0.017zM749.585 189.491l-1.263-1.041 1.792 0.017c0.99 0.017 2.833 0.188 4.096 0.393 2.458 0.393 2.082 0.717-1.553 1.348-1.399 0.239-2.099 0.085-3.072-0.717zM614.741 187.904c-5.956-2.321-7.68-4.983-4.181-6.434 0.973-0.41 2.714-0.734 3.857-0.734 3.994 0 7.27-2.321 9.028-6.4 1.075-2.492 1.143-8.687 0.119-10.803-0.905-1.86-3.772-3.789-5.632-3.789-1.792 0-1.792-0.137-0.154-2.287 0.717-0.939 1.434-2.526 1.604-3.516 0.393-2.458-1.161-3.823-6.673-5.905-4.779-1.809-5.905-2.799-7.219-6.366-0.956-2.611-2.748-4.642-7.578-8.704-3.038-2.543-3.721-4.198-2.219-5.444 1.229-1.024 6.673-1.502 20.395-1.775l13.193-0.273v1.57c0 0.853-0.939 3.891-2.082 6.741-2.987 7.407-3.055 8.789-0.751 15.428 1.792 5.188 1.929 6.076 2.628 16.589 0.41 6.11 0.87 12.254 1.024 13.67 0.375 3.362-1.28 6.656-4.181 8.311-2.611 1.451-7.595 1.502-11.179 0.119zM401.169 182.596c-1.297-1.297-1.707-3.362-1.007-5.188 0.171-0.461 1.724-1.775 3.465-2.935 4.454-2.987 6.417-4.966 6.997-7.134 0.631-2.338 0.239-3.379-2.782-7.373-1.28-1.69-3.482-5.154-4.898-7.714l-2.577-4.642v-5.239c0-3.703-0.222-5.683-0.785-6.758-0.461-0.905-2.611-2.714-5.257-4.454-4.164-2.748-4.471-3.072-4.625-4.847-0.222-2.765 1.365-4.164 5.939-5.188 4.932-1.126 11.742-1.041 20.343 0.239 7.919 1.178 10.837 2.253 12.169 4.506 1.638 2.765 0.973 4.659-4.284 12.356-1.638 2.389-3.618 5.734-4.42 7.424-1.382 2.935-1.417 3.328-1.212 9.216 0.529 14.848 0.393 17.186-1.075 20.002-2.441 4.642-7.236 8.038-12.356 8.738-2.031 0.273-2.475 0.154-3.635-1.007zM746.513 182.289c-4.471-1.365-4.557-2.645-0.495-7.714 5.001-6.246 5.427-7.868 3.601-13.705-0.563-1.775-1.365-6.605-1.792-10.752-1.041-10.086-2.031-12.134-8.687-18.261-5.717-5.239-7.765-8.67-7.287-12.151 0.375-2.782 2.031-4.386 5.513-5.308 4.489-1.195 15.275-0.751 20.292 0.836 2.014 0.649 4.762 3.669 4.762 5.257 0 1.502-1.246 4.983-4.864 13.636-1.587 3.806-3.226 8.294-3.618 9.984-1.058 4.506-0.922 10.667 0.324 14.080 4.437 12.186 5.035 14.797 4.113 18.21-0.614 2.27-3.106 4.983-5.342 5.82-1.638 0.631-4.591 0.649-6.519 0.068z"></path>
</symbol>
<symbol id="icon-phone" viewBox="0 0 1024 1024">
<title>phone</title>
<path fill="#2d5299" class="path1" d="M512.008 0c-282.776 0-512.008 229.232-512.008 512.008s229.232 512.008 512.008 512.008c282.776 0 512.008-229.232 512.008-512.008s-229.248-512.008-512.008-512.008zM647.353 823.32c-43.557-3.296-327.58-71.502-447.197-409.347-24.222-70.846 5.707-185.068 86.753-210.586 82.227-26.567 124.292 88.311 136.263 160.945l-71.715 71.649c0 0-2.034 44.787 96.117 142.921 98.036 98.085 142.889 96.085 142.889 96.085l83.326-83.26c52.659 11.102 158.206 78.176 158.206 78.176-13.103 99.036-80.243 164.454-184.642 153.417z"></path>
</symbol>
</defs>
</svg>
